<svg width="10" height="14" viewBox="0 0 10 14" fill="none" xmlns="http://www.w3.org/2000/svg">
<path d="M4.72183 13.2158C2.11757 13.2158 0.430919 11.7651 0.264876 9.77263L0.256136 9.66776H1.76801L1.77674 9.75515C1.90783 10.9961 3.04392 11.8525 4.72183 11.8525C6.37352 11.8525 7.50087 10.9262 7.50087 9.58911V9.57163C7.50087 8.0248 6.391 7.15963 4.6257 7.15963H3.04392V5.83128H4.55579C6.05892 5.83128 7.10761 4.90493 7.10761 3.6465V3.62902C7.10761 2.30941 6.24244 1.54911 4.70435 1.54911C3.2187 1.54911 2.16127 2.33563 2.03018 3.61154L2.02144 3.69894H0.509571L0.51831 3.61154C0.71931 1.55785 2.34479 0.185807 4.70435 0.185807C7.10761 0.185807 8.68939 1.52289 8.68939 3.43676V3.45424C8.68939 5.0098 7.58826 6.07598 6.01522 6.40806V6.44302C7.85044 6.60032 9.10013 7.74515 9.10013 9.53667V9.55415C9.10013 11.6603 7.24744 13.2158 4.72183 13.2158Z" fill="#F6F6F6"/>
</svg>
