<svg width="10" height="14" viewBox="0 0 10 14" fill="none" xmlns="http://www.w3.org/2000/svg">
<path d="M5.04935 13.2158C2.63735 13.2158 0.915743 11.7127 0.732222 9.65902L0.723483 9.56289H2.27031L2.27905 9.6328C2.43635 10.8825 3.55496 11.8351 5.06683 11.8351C6.7797 11.8351 7.96822 10.6465 7.96822 8.95115V8.93367C7.95948 7.27324 6.76222 6.08472 5.09305 6.08472C4.23661 6.08472 3.50252 6.33815 2.94322 6.84502C2.716 7.05476 2.515 7.29945 2.34896 7.58785H0.959439L1.60613 0.395546H8.82465V1.79381H2.89952L2.47131 6.03228H2.50626C3.10052 5.18459 4.14922 4.73015 5.3727 4.73015C7.79343 4.73015 9.54126 6.48672 9.54126 8.90745V8.92493C9.53252 11.4505 7.67109 13.2158 5.04935 13.2158Z" fill="#F6F6F6"/>
</svg>
