<svg width="13" height="14" viewBox="0 0 13 14" fill="none" xmlns="http://www.w3.org/2000/svg">
<path d="M6.6701 13.272C2.83974 13.272 0.0475883 10.9439 0.0475883 6.72031V6.71244C0.0475883 2.81916 2.72176 0.144992 6.54425 0.144992C10.1937 0.144992 12.8522 2.45736 12.8522 6.15401V6.16188C12.8522 8.76526 11.7196 10.1259 10.2566 10.1259C9.26562 10.1259 8.6128 9.49673 8.35325 8.71021L8.32966 8.63942H8.25887C7.8892 9.59111 7.07909 10.0552 6.07234 10.0552C4.43638 10.0552 3.33525 8.71807 3.33525 6.72817V6.72031C3.33525 4.79333 4.45997 3.46411 6.07234 3.46411C6.91392 3.46411 7.67684 3.90456 7.97572 4.57311H8.03864V3.61355H9.22629V7.44391C9.22629 8.52931 9.65101 9.05628 10.2724 9.05628C11.0982 9.05628 11.6645 8.08886 11.6645 6.16974V6.16188C11.6645 3.11804 9.54876 1.21466 6.44201 1.21466C3.42176 1.21466 1.23524 3.48771 1.23524 6.72031V6.72817C1.23524 10.2597 3.5712 12.1945 6.68583 12.1945C7.73977 12.1945 8.8173 12.0451 9.32854 11.817V12.8866C8.6364 13.1305 7.68471 13.272 6.6701 13.272ZM6.25324 8.94616C7.33077 8.94616 8.02291 8.08886 8.02291 6.7439V6.73604C8.02291 5.39109 7.33077 4.54951 6.26897 4.54951C5.21503 4.54951 4.59368 5.35963 4.59368 6.72817V6.73604C4.59368 8.11245 5.2229 8.94616 6.25324 8.94616Z" fill="#F6F6F6"/>
</svg>
