<svg width="9" height="15" viewBox="0 0 9 15" fill="none" xmlns="http://www.w3.org/2000/svg">
<path d="M4.30513 14.5642V13.2349C2.44108 13.0698 0.962419 11.9529 0.836576 10.199L0.828711 10.0889H2.19726L2.21299 10.1832C2.37029 11.0877 2.95232 11.8507 4.30513 12.0001V8.21694L4.12423 8.16974C2.1658 7.69783 1.11186 6.82479 1.11186 5.26748V5.25962C1.11186 3.57646 2.44894 2.436 4.30513 2.26297V0.93375H5.24896V2.25511C7.05796 2.42027 8.41864 3.57646 8.52875 5.22816L8.53662 5.34613H7.16807L7.16021 5.27535C7.05009 4.28433 6.31076 3.63152 5.24896 3.49781V7.10794L5.49278 7.163C7.51414 7.65064 8.64673 8.48435 8.64673 10.1439V10.1518C8.64673 12.0394 7.09728 13.1012 5.24896 13.2428V14.5642H4.30513ZM2.48041 5.19669C2.48041 5.96749 2.96018 6.54951 4.30513 6.87985V3.49781C3.10962 3.66298 2.48041 4.4259 2.48041 5.18883V5.19669ZM5.29615 8.45289L5.24896 8.44503V12.0158C6.71189 11.8979 7.27818 11.1507 7.27818 10.2383V10.2304C7.27818 9.37312 6.8456 8.83042 5.29615 8.45289Z" fill="#F6F6F6"/>
</svg>
