<svg width="13" height="13" viewBox="0 0 13 13" fill="none" xmlns="http://www.w3.org/2000/svg">
<path d="M3.03221 6.67424C1.60074 6.67424 0.735565 5.58097 0.735565 3.82703V3.81916C0.735565 2.07309 1.60074 0.979823 3.03221 0.979823C4.46368 0.979823 5.32885 2.07309 5.32885 3.81916V3.82703C5.32885 5.58097 4.46368 6.67424 3.03221 6.67424ZM3.54345 12.4237H2.25355L9.53674 1.07421H10.8109L3.54345 12.4237ZM3.03221 5.73041C3.79513 5.73041 4.23558 5.02254 4.23558 3.82703V3.81916C4.23558 2.62365 3.79513 1.92365 3.03221 1.92365C2.26928 1.92365 1.82883 2.62365 1.82883 3.81916V3.82703C1.82883 5.02254 2.26928 5.73041 3.03221 5.73041ZM10.0244 12.5181C8.59291 12.5181 7.72774 11.4248 7.72774 9.67088V9.66302C7.72774 7.91694 8.59291 6.82368 10.0244 6.82368C11.4558 6.82368 12.321 7.91694 12.321 9.66302V9.67088C12.321 11.4248 11.4558 12.5181 10.0244 12.5181ZM10.0244 11.5743C10.7873 11.5743 11.2278 10.8664 11.2278 9.67088V9.66302C11.2278 8.4675 10.7873 7.7675 10.0244 7.7675C9.26146 7.7675 8.821 8.4675 8.821 9.66302V9.67088C8.821 10.8664 9.26146 11.5743 10.0244 11.5743Z" fill="#F6F6F6"/>
</svg>
