<svg width="11" height="13" viewBox="0 0 11 13" fill="none" xmlns="http://www.w3.org/2000/svg">
<path d="M4.3802 12.6125C2.13862 12.6125 0.573439 11.2911 0.573439 9.40346V9.3956C0.573439 8.05851 1.31277 7.0439 2.80716 6.24951L3.22402 6.02929C2.24873 4.93602 1.83187 4.23602 1.82401 3.41804V3.41017C1.82401 1.96297 3.05098 0.88544 4.68695 0.88544C6.34651 0.88544 7.55775 1.93151 7.55775 3.40231V3.41017C7.55775 4.52703 6.9128 5.34502 5.1274 6.3203L7.91955 9.30908C8.28921 8.50683 8.47798 7.50795 8.47798 6.33603V5.99783H9.7836V6.3439C9.7836 7.91694 9.4454 9.24616 8.82405 10.2686L10.7903 12.3765V12.4237H9.06L8.0218 11.2833C7.10943 12.1484 5.87459 12.6125 4.3802 12.6125ZM3.16109 3.48096C3.16109 4.10231 3.54649 4.60569 4.38807 5.51805C5.78021 4.77872 6.23639 4.22816 6.23639 3.46523V3.45736C6.23639 2.59219 5.60718 1.99444 4.69481 1.99444C3.80604 1.99444 3.16109 2.60792 3.16109 3.47309V3.48096ZM1.97345 9.30908C1.97345 10.5754 2.99592 11.4327 4.50605 11.4327C5.6465 11.4327 6.54314 11.063 7.19595 10.3866L4.00267 6.87873L3.63301 7.08323C2.43749 7.7675 1.97345 8.43604 1.97345 9.30122V9.30908Z" fill="#F6F6F6"/>
</svg>
