<svg width="5" height="16" viewBox="0 0 5 16" fill="none" xmlns="http://www.w3.org/2000/svg">
<path opacity="0.9" d="M4.50075 15.0288C2.64456 15.0288 1.77152 14.1558 1.77152 12.3232V10.3962C1.77152 9.13778 1.33893 8.72093 0.0569014 8.72093V7.22653C1.33893 7.22653 1.77152 6.80968 1.77152 5.55124V3.63213C1.77152 1.79954 2.6131 0.9265 4.50075 0.9265H4.93333V2.0355H4.61872C3.50973 2.0355 3.06141 2.54673 3.06141 3.80517V6.03889C3.06141 7.17148 2.49512 7.76137 1.33893 7.87935V8.06811C2.49512 8.18609 3.06141 8.77598 3.06141 9.90857V12.1502C3.06141 13.4086 3.50973 13.9198 4.61872 13.9198H4.93333V15.0288H4.50075Z" fill="#F6F6F6"/>
</svg>
