<svg width="6" height="16" viewBox="0 0 6 16" fill="none" xmlns="http://www.w3.org/2000/svg">
<path opacity="0.9" d="M1.13158 15.0288H0.698991V13.9198H1.0136C2.12259 13.9198 2.57091 13.4086 2.57091 12.1502V9.90857C2.57091 8.77598 3.13721 8.18609 4.29339 8.06811V7.87935C3.13721 7.76137 2.57091 7.17148 2.57091 6.03889V3.80517C2.57091 2.54673 2.12259 2.0355 1.0136 2.0355H0.698991V0.9265H1.13158C3.01923 0.9265 3.86081 1.79954 3.86081 3.63213V5.55124C3.86081 6.80968 4.29339 7.22653 5.57542 7.22653V8.72093C4.29339 8.72093 3.86081 9.13778 3.86081 10.3962V12.3232C3.86081 14.1558 2.98777 15.0288 1.13158 15.0288Z" fill="#F6F6F6"/>
</svg>
