<svg width="21" height="22" viewBox="0 0 21 22" fill="none" xmlns="http://www.w3.org/2000/svg">
<path fill-rule="evenodd" clip-rule="evenodd" d="M20.8717 11.2364C20.8717 10.4989 20.8055 9.78986 20.6826 9.10913H10.8877V13.132H16.4848C16.2437 14.432 15.511 15.5335 14.4095 16.2709V18.8804H17.7706C19.7371 17.0699 20.8717 14.4037 20.8717 11.2364Z" fill="white"/>
<path fill-rule="evenodd" clip-rule="evenodd" d="M10.8881 21.4001C13.6961 21.4001 16.0502 20.4688 17.771 18.8804L14.4099 16.271C13.4786 16.895 12.2873 17.2637 10.8881 17.2637C8.17933 17.2637 5.8866 15.4343 5.06878 12.9761H1.59424V15.6706C3.30551 19.0695 6.8226 21.4001 10.8881 21.4001Z" fill="white"/>
<path fill-rule="evenodd" clip-rule="evenodd" d="M5.06852 12.9761C4.86052 12.3521 4.74234 11.6856 4.74234 11.0001C4.74234 10.3147 4.86052 9.64813 5.06852 9.02413V6.32959H1.59397C0.889611 7.73359 0.487793 9.32195 0.487793 11.0001C0.487793 12.6783 0.889611 14.2667 1.59397 15.6707L5.06852 12.9761Z" fill="white"/>
<path fill-rule="evenodd" clip-rule="evenodd" d="M10.8881 4.73646C12.415 4.73646 13.7859 5.26119 14.8637 6.29173L17.8466 3.30882C16.0455 1.63064 13.6913 0.600098 10.8881 0.600098C6.8226 0.600098 3.30551 2.93064 1.59424 6.32955L5.06878 9.0241C5.8866 6.56591 8.17933 4.73646 10.8881 4.73646Z" fill="white"/>
</svg>
