<svg width="622" height="659" viewBox="0 0 622 659" fill="none" xmlns="http://www.w3.org/2000/svg">
<rect x="206" y="233" width="176" height="95" rx="16" transform="rotate(-90 206 233)" fill="#FF51AF"/>
<rect x="206" y="571" width="322" height="97" rx="16" transform="rotate(-90 206 571)" fill="#6AFEFF"/>
<path d="M275.867 542.913L279.584 540.413L281.058 542.603L274.503 547.013L266.666 535.363L269.504 533.454L275.867 542.913Z" fill="black"/>
<path d="M237.117 487.248L235.886 489.696L232.562 488.024L227.484 498.119L224.429 496.582L229.507 486.487L226.184 484.816L227.415 482.368L237.117 487.248Z" fill="black"/>
<path d="M284.281 433.625L282.493 447.55L279.101 447.115L279.837 441.382L274.56 440.705L273.824 446.438L270.432 446.002L272.219 432.077L275.612 432.512L274.912 437.967L280.188 438.645L280.888 433.189L284.281 433.625Z" fill="black"/>
<path d="M229.614 397.809C228.596 397.678 227.704 397.396 226.94 396.961C226.176 396.527 225.59 395.955 225.184 395.244C224.791 394.535 224.64 393.722 224.731 392.806L228.341 393.27C228.328 393.792 228.456 394.212 228.724 394.529C228.994 394.832 229.374 395.015 229.863 395.078C230.366 395.143 230.777 395.081 231.097 394.894C231.418 394.693 231.606 394.388 231.658 393.978C231.702 393.634 231.62 393.334 231.411 393.079C231.215 392.825 230.954 392.604 230.629 392.414C230.317 392.226 229.862 392 229.264 391.735C228.401 391.342 227.702 390.97 227.169 390.619C226.636 390.268 226.199 389.795 225.859 389.201C225.519 388.606 225.405 387.872 225.517 386.999C225.683 385.703 226.282 384.752 227.315 384.145C228.349 383.525 229.619 383.311 231.127 383.505C232.661 383.702 233.85 384.231 234.694 385.092C235.54 385.94 235.911 387.023 235.81 388.34L232.14 387.869C232.171 387.416 232.051 387.045 231.779 386.754C231.508 386.451 231.135 386.268 230.659 386.207C230.249 386.155 229.904 386.225 229.624 386.417C229.346 386.597 229.18 386.891 229.127 387.301C229.07 387.751 229.236 388.129 229.627 388.434C230.018 388.74 230.645 389.096 231.507 389.502C232.367 389.922 233.057 390.306 233.577 390.655C234.11 391.006 234.547 391.472 234.889 392.053C235.231 392.635 235.349 393.342 235.242 394.176C235.14 394.969 234.843 395.664 234.35 396.259C233.87 396.856 233.222 397.297 232.405 397.582C231.589 397.867 230.659 397.943 229.614 397.809Z" fill="black"/>
<path d="M280.57 350.297L275.856 346.504L275.097 346.815L277.111 351.718L273.948 353.017L268.613 340.03L273.922 337.849C274.946 337.429 275.889 337.25 276.751 337.314C277.625 337.373 278.371 337.643 278.987 338.126C279.598 338.595 280.06 339.212 280.374 339.977C280.729 340.84 280.799 341.713 280.584 342.594C280.382 343.469 279.864 344.244 279.031 344.918L284.141 348.83L280.57 350.297ZM274.177 344.577L276.138 343.771C276.718 343.533 277.092 343.214 277.259 342.814C277.438 342.409 277.421 341.947 277.209 341.429C277.006 340.936 276.698 340.608 276.286 340.446C275.886 340.279 275.396 340.314 274.816 340.552L272.855 341.358L274.177 344.577Z" fill="black"/>
<path d="M233.478 281.495L231.691 295.421L228.299 294.985L230.086 281.06L233.478 281.495Z" fill="black"/>
<rect x="206" y="711" width="124" height="95" rx="16" transform="rotate(-90 206 711)" fill="#FFE264"/>
<rect x="525" y="215" width="93" height="95" rx="16" transform="rotate(-90 525 215)" fill="#5CFE5C"/>
<rect x="525" y="504" width="274" height="97" rx="16" transform="rotate(-90 525 504)" fill="#F8FCCB"/>
<rect x="525" y="716" width="197" height="95" rx="16" transform="rotate(-90 525 716)" fill="#FF51AF"/>
<path d="M174 0C182.837 0 190 7.16344 190 16V92C190 100.837 182.837 108 174 108L16 108C7.16344 108 0 100.837 0 92V16C0 7.16344 7.16345 0 16 0L174 0Z" fill="#5CFE5C"/>
<path d="M35.8307 36.14C35.8307 37.3 35.4307 38.2667 34.6307 39.04C33.844 39.8 32.6374 40.18 31.0107 40.18H28.3307V46H26.5107V32.06H31.0107C32.584 32.06 33.7774 32.44 34.5907 33.2C35.4174 33.96 35.8307 34.94 35.8307 36.14ZM31.0107 38.68C32.024 38.68 32.7707 38.46 33.2507 38.02C33.7307 37.58 33.9707 36.9533 33.9707 36.14C33.9707 34.42 32.984 33.56 31.0107 33.56H28.3307V38.68H31.0107ZM39.9127 36.82C40.2327 36.1933 40.6861 35.7067 41.2727 35.36C41.8727 35.0133 42.5994 34.84 43.4527 34.84V36.72H42.9727C40.9327 36.72 39.9127 37.8267 39.9127 40.04V46H38.0927V35.04H39.9127V36.82ZM44.8737 40.48C44.8737 39.36 45.1003 38.38 45.5537 37.54C46.007 36.6867 46.627 36.0267 47.4137 35.56C48.2137 35.0933 49.1003 34.86 50.0737 34.86C51.0337 34.86 51.867 35.0667 52.5737 35.48C53.2803 35.8933 53.807 36.4133 54.1537 37.04V35.04H55.9937V46H54.1537V43.96C53.7937 44.6 53.2537 45.1333 52.5337 45.56C51.827 45.9733 51.0003 46.18 50.0537 46.18C49.0803 46.18 48.2003 45.94 47.4137 45.46C46.627 44.98 46.007 44.3067 45.5537 43.44C45.1003 42.5733 44.8737 41.5867 44.8737 40.48ZM54.1537 40.5C54.1537 39.6733 53.987 38.9533 53.6537 38.34C53.3203 37.7267 52.867 37.26 52.2937 36.94C51.7337 36.6067 51.1137 36.44 50.4337 36.44C49.7537 36.44 49.1337 36.6 48.5737 36.92C48.0137 37.24 47.567 37.7067 47.2337 38.32C46.9003 38.9333 46.7337 39.6533 46.7337 40.48C46.7337 41.32 46.9003 42.0533 47.2337 42.68C47.567 43.2933 48.0137 43.7667 48.5737 44.1C49.1337 44.42 49.7537 44.58 50.4337 44.58C51.1137 44.58 51.7337 44.42 52.2937 44.1C52.867 43.7667 53.3203 43.2933 53.6537 42.68C53.987 42.0533 54.1537 41.3267 54.1537 40.5ZM58.3893 40.5C58.3893 39.3667 58.616 38.38 59.0693 37.54C59.5226 36.6867 60.1493 36.0267 60.9493 35.56C61.7626 35.0933 62.6893 34.86 63.7293 34.86C65.076 34.86 66.1826 35.1867 67.0493 35.84C67.9293 36.4933 68.5093 37.4 68.7893 38.56H66.8293C66.6426 37.8933 66.276 37.3667 65.7293 36.98C65.196 36.5933 64.5293 36.4 63.7293 36.4C62.6893 36.4 61.8493 36.76 61.2093 37.48C60.5693 38.1867 60.2493 39.1933 60.2493 40.5C60.2493 41.82 60.5693 42.84 61.2093 43.56C61.8493 44.28 62.6893 44.64 63.7293 44.64C64.5293 44.64 65.196 44.4533 65.7293 44.08C66.2626 43.7067 66.6293 43.1733 66.8293 42.48H68.7893C68.496 43.6 67.9093 44.5 67.0293 45.18C66.1493 45.8467 65.0493 46.18 63.7293 46.18C62.6893 46.18 61.7626 45.9467 60.9493 45.48C60.1493 45.0133 59.5226 44.3533 59.0693 43.5C58.616 42.6467 58.3893 41.6467 58.3893 40.5ZM73.4377 36.54V43C73.4377 43.5333 73.5511 43.9133 73.7777 44.14C74.0044 44.3533 74.3977 44.46 74.9577 44.46H76.2977V46H74.6577C73.6444 46 72.8844 45.7667 72.3777 45.3C71.8711 44.8333 71.6177 44.0667 71.6177 43V36.54H70.1977V35.04H71.6177V32.28H73.4377V35.04H76.2977V36.54H73.4377ZM79.4429 33.26C79.0962 33.26 78.8029 33.14 78.5629 32.9C78.3229 32.66 78.2029 32.3667 78.2029 32.02C78.2029 31.6733 78.3229 31.38 78.5629 31.14C78.8029 30.9 79.0962 30.78 79.4429 30.78C79.7762 30.78 80.0562 30.9 80.2829 31.14C80.5229 31.38 80.6429 31.6733 80.6429 32.02C80.6429 32.3667 80.5229 32.66 80.2829 32.9C80.0562 33.14 79.7762 33.26 79.4429 33.26ZM80.3229 35.04V46H78.5029V35.04H80.3229ZM82.7448 40.5C82.7448 39.3667 82.9714 38.38 83.4248 37.54C83.8781 36.6867 84.5048 36.0267 85.3048 35.56C86.1181 35.0933 87.0448 34.86 88.0848 34.86C89.4314 34.86 90.5381 35.1867 91.4048 35.84C92.2848 36.4933 92.8648 37.4 93.1448 38.56H91.1848C90.9981 37.8933 90.6314 37.3667 90.0848 36.98C89.5514 36.5933 88.8848 36.4 88.0848 36.4C87.0448 36.4 86.2048 36.76 85.5648 37.48C84.9248 38.1867 84.6048 39.1933 84.6048 40.5C84.6048 41.82 84.9248 42.84 85.5648 43.56C86.2048 44.28 87.0448 44.64 88.0848 44.64C88.8848 44.64 89.5514 44.4533 90.0848 44.08C90.6181 43.7067 90.9848 43.1733 91.1848 42.48H93.1448C92.8514 43.6 92.2648 44.5 91.3848 45.18C90.5048 45.8467 89.4048 46.18 88.0848 46.18C87.0448 46.18 86.1181 45.9467 85.3048 45.48C84.5048 45.0133 83.8781 44.3533 83.4248 43.5C82.9714 42.6467 82.7448 41.6467 82.7448 40.5ZM105.573 40.1C105.573 40.4467 105.553 40.8133 105.513 41.2H96.7532C96.8199 42.28 97.1865 43.1267 97.8532 43.74C98.5332 44.34 99.3532 44.64 100.313 44.64C101.1 44.64 101.753 44.46 102.273 44.1C102.807 43.7267 103.18 43.2333 103.393 42.62H105.353C105.06 43.6733 104.473 44.5333 103.593 45.2C102.713 45.8533 101.62 46.18 100.313 46.18C99.2732 46.18 98.3399 45.9467 97.5132 45.48C96.6999 45.0133 96.0599 44.3533 95.5932 43.5C95.1265 42.6333 94.8932 41.6333 94.8932 40.5C94.8932 39.3667 95.1199 38.3733 95.5732 37.52C96.0265 36.6667 96.6599 36.0133 97.4732 35.56C98.2999 35.0933 99.2465 34.86 100.313 34.86C101.353 34.86 102.273 35.0867 103.073 35.54C103.873 35.9933 104.487 36.62 104.913 37.42C105.353 38.2067 105.573 39.1 105.573 40.1ZM103.693 39.72C103.693 39.0267 103.54 38.4333 103.233 37.94C102.927 37.4333 102.507 37.0533 101.973 36.8C101.453 36.5333 100.873 36.4 100.233 36.4C99.3132 36.4 98.5265 36.6933 97.8732 37.28C97.2332 37.8667 96.8665 38.68 96.7732 39.72H103.693ZM126.488 34.84C127.341 34.84 128.101 35.02 128.768 35.38C129.434 35.7267 129.961 36.2533 130.348 36.96C130.734 37.6667 130.928 38.5267 130.928 39.54V46H129.128V39.8C129.128 38.7067 128.854 37.8733 128.308 37.3C127.774 36.7133 127.048 36.42 126.128 36.42C125.181 36.42 124.428 36.7267 123.868 37.34C123.308 37.94 123.028 38.8133 123.028 39.96V46H121.228V39.8C121.228 38.7067 120.954 37.8733 120.408 37.3C119.874 36.7133 119.148 36.42 118.228 36.42C117.281 36.42 116.528 36.7267 115.968 37.34C115.408 37.94 115.128 38.8133 115.128 39.96V46H113.308V35.04H115.128V36.62C115.488 36.0467 115.968 35.6067 116.568 35.3C117.181 34.9933 117.854 34.84 118.588 34.84C119.508 34.84 120.321 35.0467 121.028 35.46C121.734 35.8733 122.261 36.48 122.608 37.28C122.914 36.5067 123.421 35.9067 124.128 35.48C124.834 35.0533 125.621 34.84 126.488 34.84ZM138.693 46.18C137.666 46.18 136.733 45.9467 135.893 45.48C135.066 45.0133 134.413 44.3533 133.933 43.5C133.466 42.6333 133.233 41.6333 133.233 40.5C133.233 39.38 133.473 38.3933 133.953 37.54C134.446 36.6733 135.113 36.0133 135.953 35.56C136.793 35.0933 137.733 34.86 138.773 34.86C139.813 34.86 140.753 35.0933 141.593 35.56C142.433 36.0133 143.093 36.6667 143.573 37.52C144.066 38.3733 144.313 39.3667 144.313 40.5C144.313 41.6333 144.06 42.6333 143.553 43.5C143.06 44.3533 142.386 45.0133 141.533 45.48C140.68 45.9467 139.733 46.18 138.693 46.18ZM138.693 44.58C139.346 44.58 139.96 44.4267 140.533 44.12C141.106 43.8133 141.566 43.3533 141.913 42.74C142.273 42.1267 142.453 41.38 142.453 40.5C142.453 39.62 142.28 38.8733 141.933 38.26C141.586 37.6467 141.133 37.1933 140.573 36.9C140.013 36.5933 139.406 36.44 138.753 36.44C138.086 36.44 137.473 36.5933 136.913 36.9C136.366 37.1933 135.926 37.6467 135.593 38.26C135.26 38.8733 135.093 39.62 135.093 40.5C135.093 41.3933 135.253 42.1467 135.573 42.76C135.906 43.3733 136.346 43.8333 136.893 44.14C137.44 44.4333 138.04 44.58 138.693 44.58ZM148.526 36.82C148.846 36.1933 149.299 35.7067 149.886 35.36C150.486 35.0133 151.213 34.84 152.066 34.84V36.72H151.586C149.546 36.72 148.526 37.8267 148.526 40.04V46H146.706V35.04H148.526V36.82ZM164.167 40.1C164.167 40.4467 164.147 40.8133 164.107 41.2H155.347C155.414 42.28 155.78 43.1267 156.447 43.74C157.127 44.34 157.947 44.64 158.907 44.64C159.694 44.64 160.347 44.46 160.867 44.1C161.4 43.7267 161.774 43.2333 161.987 42.62H163.947C163.654 43.6733 163.067 44.5333 162.187 45.2C161.307 45.8533 160.214 46.18 158.907 46.18C157.867 46.18 156.934 45.9467 156.107 45.48C155.294 45.0133 154.654 44.3533 154.187 43.5C153.72 42.6333 153.487 41.6333 153.487 40.5C153.487 39.3667 153.714 38.3733 154.167 37.52C154.62 36.6667 155.254 36.0133 156.067 35.56C156.894 35.0933 157.84 34.86 158.907 34.86C159.947 34.86 160.867 35.0867 161.667 35.54C162.467 35.9933 163.08 36.62 163.507 37.42C163.947 38.2067 164.167 39.1 164.167 40.1ZM162.287 39.72C162.287 39.0267 162.134 38.4333 161.827 37.94C161.52 37.4333 161.1 37.0533 160.567 36.8C160.047 36.5333 159.467 36.4 158.827 36.4C157.907 36.4 157.12 36.6933 156.467 37.28C155.827 37.8667 155.46 38.68 155.367 39.72H162.287ZM45.4596 70.48C45.4596 69.36 45.6863 68.38 46.1396 67.54C46.5929 66.6867 47.2129 66.0267 47.9996 65.56C48.7996 65.0933 49.6863 64.86 50.6596 64.86C51.6196 64.86 52.4529 65.0667 53.1596 65.48C53.8663 65.8933 54.3929 66.4133 54.7396 67.04V65.04H56.5796V76H54.7396V73.96C54.3796 74.6 53.8396 75.1333 53.1196 75.56C52.4129 75.9733 51.5863 76.18 50.6396 76.18C49.6663 76.18 48.7863 75.94 47.9996 75.46C47.2129 74.98 46.5929 74.3067 46.1396 73.44C45.6863 72.5733 45.4596 71.5867 45.4596 70.48ZM54.7396 70.5C54.7396 69.6733 54.5729 68.9533 54.2396 68.34C53.9063 67.7267 53.4529 67.26 52.8796 66.94C52.3196 66.6067 51.6996 66.44 51.0196 66.44C50.3396 66.44 49.7196 66.6 49.1596 66.92C48.5996 67.24 48.1529 67.7067 47.8196 68.32C47.4863 68.9333 47.3196 69.6533 47.3196 70.48C47.3196 71.32 47.4863 72.0533 47.8196 72.68C48.1529 73.2933 48.5996 73.7667 49.1596 74.1C49.7196 74.42 50.3396 74.58 51.0196 74.58C51.6996 74.58 52.3196 74.42 52.8796 74.1C53.4529 73.7667 53.9063 73.2933 54.2396 72.68C54.5729 72.0533 54.7396 71.3267 54.7396 70.5ZM64.9952 64.84C66.3286 64.84 67.4086 65.2467 68.2352 66.06C69.0619 66.86 69.4752 68.02 69.4752 69.54V76H67.6752V69.8C67.6752 68.7067 67.4019 67.8733 66.8552 67.3C66.3086 66.7133 65.5619 66.42 64.6152 66.42C63.6552 66.42 62.8886 66.72 62.3152 67.32C61.7552 67.92 61.4752 68.7933 61.4752 69.94V76H59.6552V65.04H61.4752V66.6C61.8352 66.04 62.3219 65.6067 62.9352 65.3C63.5619 64.9933 64.2486 64.84 64.9952 64.84ZM71.7682 70.48C71.7682 69.36 71.9949 68.38 72.4482 67.54C72.9015 66.6867 73.5215 66.0267 74.3082 65.56C75.1082 65.0933 76.0015 64.86 76.9882 64.86C77.8415 64.86 78.6349 65.06 79.3682 65.46C80.1015 65.8467 80.6615 66.36 81.0482 67V61.2H82.8882V76H81.0482V73.94C80.6882 74.5933 80.1549 75.1333 79.4482 75.56C78.7415 75.9733 77.9149 76.18 76.9682 76.18C75.9949 76.18 75.1082 75.94 74.3082 75.46C73.5215 74.98 72.9015 74.3067 72.4482 73.44C71.9949 72.5733 71.7682 71.5867 71.7682 70.48ZM81.0482 70.5C81.0482 69.6733 80.8815 68.9533 80.5482 68.34C80.2149 67.7267 79.7615 67.26 79.1882 66.94C78.6282 66.6067 78.0082 66.44 77.3282 66.44C76.6482 66.44 76.0282 66.6 75.4682 66.92C74.9082 67.24 74.4615 67.7067 74.1282 68.32C73.7949 68.9333 73.6282 69.6533 73.6282 70.48C73.6282 71.32 73.7949 72.0533 74.1282 72.68C74.4615 73.2933 74.9082 73.7667 75.4682 74.1C76.0282 74.42 76.6482 74.58 77.3282 74.58C78.0082 74.58 78.6282 74.42 79.1882 74.1C79.7615 73.7667 80.2149 73.2933 80.5482 72.68C80.8815 72.0533 81.0482 71.3267 81.0482 70.5ZM101.296 70.1C101.296 70.4467 101.276 70.8133 101.236 71.2H92.4759C92.5425 72.28 92.9092 73.1267 93.5759 73.74C94.2559 74.34 95.0759 74.64 96.0359 74.64C96.8225 74.64 97.4759 74.46 97.9959 74.1C98.5292 73.7267 98.9025 73.2333 99.1159 72.62H101.076C100.783 73.6733 100.196 74.5333 99.3159 75.2C98.4359 75.8533 97.3425 76.18 96.0359 76.18C94.9959 76.18 94.0625 75.9467 93.2359 75.48C92.4225 75.0133 91.7825 74.3533 91.3159 73.5C90.8492 72.6333 90.6159 71.6333 90.6159 70.5C90.6159 69.3667 90.8425 68.3733 91.2959 67.52C91.7492 66.6667 92.3825 66.0133 93.1959 65.56C94.0225 65.0933 94.9692 64.86 96.0359 64.86C97.0759 64.86 97.9959 65.0867 98.7959 65.54C99.5959 65.9933 100.209 66.62 100.636 67.42C101.076 68.2067 101.296 69.1 101.296 70.1ZM99.4159 69.72C99.4159 69.0267 99.2625 68.4333 98.9559 67.94C98.6492 67.4333 98.2292 67.0533 97.6959 66.8C97.1759 66.5333 96.5959 66.4 95.9559 66.4C95.0359 66.4 94.2492 66.6933 93.5959 67.28C92.9559 67.8667 92.5892 68.68 92.4959 69.72H99.4159ZM109.418 76L106.818 71.92L104.318 76H102.418L105.958 70.56L102.418 65.04H104.478L107.078 69.1L109.558 65.04H111.458L107.938 70.46L111.478 76H109.418ZM112.589 70.5C112.589 69.3667 112.815 68.38 113.269 67.54C113.722 66.6867 114.349 66.0267 115.149 65.56C115.962 65.0933 116.889 64.86 117.929 64.86C119.275 64.86 120.382 65.1867 121.249 65.84C122.129 66.4933 122.709 67.4 122.989 68.56H121.029C120.842 67.8933 120.475 67.3667 119.929 66.98C119.395 66.5933 118.729 66.4 117.929 66.4C116.889 66.4 116.049 66.76 115.409 67.48C114.769 68.1867 114.449 69.1933 114.449 70.5C114.449 71.82 114.769 72.84 115.409 73.56C116.049 74.28 116.889 74.64 117.929 74.64C118.729 74.64 119.395 74.4533 119.929 74.08C120.462 73.7067 120.829 73.1733 121.029 72.48H122.989C122.695 73.6 122.109 74.5 121.229 75.18C120.349 75.8467 119.249 76.18 117.929 76.18C116.889 76.18 115.962 75.9467 115.149 75.48C114.349 75.0133 113.722 74.3533 113.269 73.5C112.815 72.6467 112.589 71.6467 112.589 70.5ZM135.417 70.1C135.417 70.4467 135.397 70.8133 135.357 71.2H126.597C126.664 72.28 127.03 73.1267 127.697 73.74C128.377 74.34 129.197 74.64 130.157 74.64C130.944 74.64 131.597 74.46 132.117 74.1C132.65 73.7267 133.024 73.2333 133.237 72.62H135.197C134.904 73.6733 134.317 74.5333 133.437 75.2C132.557 75.8533 131.464 76.18 130.157 76.18C129.117 76.18 128.184 75.9467 127.357 75.48C126.544 75.0133 125.904 74.3533 125.437 73.5C124.97 72.6333 124.737 71.6333 124.737 70.5C124.737 69.3667 124.964 68.3733 125.417 67.52C125.87 66.6667 126.504 66.0133 127.317 65.56C128.144 65.0933 129.09 64.86 130.157 64.86C131.197 64.86 132.117 65.0867 132.917 65.54C133.717 65.9933 134.33 66.62 134.757 67.42C135.197 68.2067 135.417 69.1 135.417 70.1ZM133.537 69.72C133.537 69.0267 133.384 68.4333 133.077 67.94C132.77 67.4333 132.35 67.0533 131.817 66.8C131.297 66.5333 130.717 66.4 130.077 66.4C129.157 66.4 128.37 66.6933 127.717 67.28C127.077 67.8667 126.71 68.68 126.617 69.72H133.537ZM139.639 61.2V76H137.819V61.2H139.639ZM143.321 76.12C142.975 76.12 142.681 76 142.441 75.76C142.201 75.52 142.081 75.2267 142.081 74.88C142.081 74.5333 142.201 74.24 142.441 74C142.681 73.76 142.975 73.64 143.321 73.64C143.655 73.64 143.935 73.76 144.161 74C144.401 74.24 144.521 74.5333 144.521 74.88C144.521 75.2267 144.401 75.52 144.161 75.76C143.935 76 143.655 76.12 143.321 76.12Z" fill="black"/>
<rect y="515" width="392" height="190" rx="16" transform="rotate(-90 0 515)" fill="#F8FCCB"/>
<path d="M25.7643 304.02C25.7643 302.66 26.071 301.44 26.6843 300.36C27.2976 299.267 28.131 298.413 29.1843 297.8C30.251 297.187 31.431 296.88 32.7243 296.88C34.2443 296.88 35.571 297.247 36.7043 297.98C37.8376 298.713 38.6643 299.753 39.1843 301.1H37.0043C36.6176 300.26 36.0576 299.613 35.3243 299.16C34.6043 298.707 33.7376 298.48 32.7243 298.48C31.751 298.48 30.8776 298.707 30.1043 299.16C29.331 299.613 28.7243 300.26 28.2843 301.1C27.8443 301.927 27.6243 302.9 27.6243 304.02C27.6243 305.127 27.8443 306.1 28.2843 306.94C28.7243 307.767 29.331 308.407 30.1043 308.86C30.8776 309.313 31.751 309.54 32.7243 309.54C33.7376 309.54 34.6043 309.32 35.3243 308.88C36.0576 308.427 36.6176 307.78 37.0043 306.94H39.1843C38.6643 308.273 37.8376 309.307 36.7043 310.04C35.571 310.76 34.2443 311.12 32.7243 311.12C31.431 311.12 30.251 310.82 29.1843 310.22C28.131 309.607 27.2976 308.76 26.6843 307.68C26.071 306.6 25.7643 305.38 25.7643 304.02ZM46.6735 311.18C45.6468 311.18 44.7135 310.947 43.8735 310.48C43.0468 310.013 42.3935 309.353 41.9135 308.5C41.4468 307.633 41.2135 306.633 41.2135 305.5C41.2135 304.38 41.4535 303.393 41.9335 302.54C42.4268 301.673 43.0935 301.013 43.9335 300.56C44.7735 300.093 45.7135 299.86 46.7535 299.86C47.7935 299.86 48.7335 300.093 49.5735 300.56C50.4135 301.013 51.0735 301.667 51.5535 302.52C52.0468 303.373 52.2935 304.367 52.2935 305.5C52.2935 306.633 52.0402 307.633 51.5335 308.5C51.0402 309.353 50.3668 310.013 49.5135 310.48C48.6602 310.947 47.7135 311.18 46.6735 311.18ZM46.6735 309.58C47.3268 309.58 47.9402 309.427 48.5135 309.12C49.0868 308.813 49.5468 308.353 49.8935 307.74C50.2535 307.127 50.4335 306.38 50.4335 305.5C50.4335 304.62 50.2602 303.873 49.9135 303.26C49.5668 302.647 49.1135 302.193 48.5535 301.9C47.9935 301.593 47.3868 301.44 46.7335 301.44C46.0668 301.44 45.4535 301.593 44.8935 301.9C44.3468 302.193 43.9068 302.647 43.5735 303.26C43.2402 303.873 43.0735 304.62 43.0735 305.5C43.0735 306.393 43.2335 307.147 43.5535 307.76C43.8868 308.373 44.3268 308.833 44.8735 309.14C45.4202 309.433 46.0202 309.58 46.6735 309.58ZM67.8665 299.84C68.7198 299.84 69.4798 300.02 70.1465 300.38C70.8132 300.727 71.3398 301.253 71.7265 301.96C72.1132 302.667 72.3065 303.527 72.3065 304.54V311H70.5065V304.8C70.5065 303.707 70.2332 302.873 69.6865 302.3C69.1532 301.713 68.4265 301.42 67.5065 301.42C66.5598 301.42 65.8065 301.727 65.2465 302.34C64.6865 302.94 64.4065 303.813 64.4065 304.96V311H62.6065V304.8C62.6065 303.707 62.3332 302.873 61.7865 302.3C61.2532 301.713 60.5265 301.42 59.6065 301.42C58.6598 301.42 57.9065 301.727 57.3465 302.34C56.7865 302.94 56.5065 303.813 56.5065 304.96V311H54.6865V300.04H56.5065V301.62C56.8665 301.047 57.3465 300.607 57.9465 300.3C58.5598 299.993 59.2332 299.84 59.9665 299.84C60.8865 299.84 61.6998 300.047 62.4065 300.46C63.1132 300.873 63.6398 301.48 63.9865 302.28C64.2932 301.507 64.7998 300.907 65.5065 300.48C66.2132 300.053 66.9998 299.84 67.8665 299.84ZM77.112 302.06C77.472 301.433 78.0053 300.913 78.712 300.5C79.432 300.073 80.2653 299.86 81.212 299.86C82.1853 299.86 83.0653 300.093 83.852 300.56C84.652 301.027 85.2786 301.687 85.732 302.54C86.1853 303.38 86.412 304.36 86.412 305.48C86.412 306.587 86.1853 307.573 85.732 308.44C85.2786 309.307 84.652 309.98 83.852 310.46C83.0653 310.94 82.1853 311.18 81.212 311.18C80.2786 311.18 79.452 310.973 78.732 310.56C78.0253 310.133 77.4853 309.607 77.112 308.98V316.2H75.292V300.04H77.112V302.06ZM84.552 305.48C84.552 304.653 84.3853 303.933 84.052 303.32C83.7186 302.707 83.2653 302.24 82.692 301.92C82.132 301.6 81.512 301.44 80.832 301.44C80.1653 301.44 79.5453 301.607 78.972 301.94C78.412 302.26 77.9586 302.733 77.612 303.36C77.2786 303.973 77.112 304.687 77.112 305.5C77.112 306.327 77.2786 307.053 77.612 307.68C77.9586 308.293 78.412 308.767 78.972 309.1C79.5453 309.42 80.1653 309.58 80.832 309.58C81.512 309.58 82.132 309.42 82.692 309.1C83.2653 308.767 83.7186 308.293 84.052 307.68C84.3853 307.053 84.552 306.32 84.552 305.48ZM98.8076 305.1C98.8076 305.447 98.7876 305.813 98.7476 306.2H89.9876C90.0542 307.28 90.4209 308.127 91.0876 308.74C91.7676 309.34 92.5876 309.64 93.5476 309.64C94.3342 309.64 94.9876 309.46 95.5076 309.1C96.0409 308.727 96.4142 308.233 96.6276 307.62H98.5876C98.2942 308.673 97.7076 309.533 96.8276 310.2C95.9476 310.853 94.8542 311.18 93.5476 311.18C92.5076 311.18 91.5742 310.947 90.7476 310.48C89.9342 310.013 89.2942 309.353 88.8276 308.5C88.3609 307.633 88.1276 306.633 88.1276 305.5C88.1276 304.367 88.3542 303.373 88.8076 302.52C89.2609 301.667 89.8942 301.013 90.7076 300.56C91.5342 300.093 92.4809 299.86 93.5476 299.86C94.5876 299.86 95.5076 300.087 96.3076 300.54C97.1076 300.993 97.7209 301.62 98.1476 302.42C98.5876 303.207 98.8076 304.1 98.8076 305.1ZM96.9276 304.72C96.9276 304.027 96.7742 303.433 96.4676 302.94C96.1609 302.433 95.7409 302.053 95.2076 301.8C94.6876 301.533 94.1076 301.4 93.4676 301.4C92.5476 301.4 91.7609 301.693 91.1076 302.28C90.4676 302.867 90.1009 303.68 90.0076 304.72H96.9276ZM103.43 301.54V308C103.43 308.533 103.543 308.913 103.77 309.14C103.997 309.353 104.39 309.46 104.95 309.46H106.29V311H104.65C103.637 311 102.877 310.767 102.37 310.3C101.863 309.833 101.61 309.067 101.61 308V301.54H100.19V300.04H101.61V297.28H103.43V300.04H106.29V301.54H103.43ZM118.495 305.1C118.495 305.447 118.475 305.813 118.435 306.2H109.675C109.742 307.28 110.108 308.127 110.775 308.74C111.455 309.34 112.275 309.64 113.235 309.64C114.022 309.64 114.675 309.46 115.195 309.1C115.728 308.727 116.102 308.233 116.315 307.62H118.275C117.982 308.673 117.395 309.533 116.515 310.2C115.635 310.853 114.542 311.18 113.235 311.18C112.195 311.18 111.262 310.947 110.435 310.48C109.622 310.013 108.982 309.353 108.515 308.5C108.048 307.633 107.815 306.633 107.815 305.5C107.815 304.367 108.042 303.373 108.495 302.52C108.948 301.667 109.582 301.013 110.395 300.56C111.222 300.093 112.168 299.86 113.235 299.86C114.275 299.86 115.195 300.087 115.995 300.54C116.795 300.993 117.408 301.62 117.835 302.42C118.275 303.207 118.495 304.1 118.495 305.1ZM116.615 304.72C116.615 304.027 116.462 303.433 116.155 302.94C115.848 302.433 115.428 302.053 114.895 301.8C114.375 301.533 113.795 301.4 113.155 301.4C112.235 301.4 111.448 301.693 110.795 302.28C110.155 302.867 109.788 303.68 109.695 304.72H116.615ZM140.829 300.04L137.409 311H135.529L132.889 302.3L130.249 311H128.369L124.929 300.04H126.789L129.309 309.24L132.029 300.04H133.889L136.549 309.26L139.029 300.04H140.829ZM143.576 298.26C143.229 298.26 142.936 298.14 142.696 297.9C142.456 297.66 142.336 297.367 142.336 297.02C142.336 296.673 142.456 296.38 142.696 296.14C142.936 295.9 143.229 295.78 143.576 295.78C143.909 295.78 144.189 295.9 144.416 296.14C144.656 296.38 144.776 296.673 144.776 297.02C144.776 297.367 144.656 297.66 144.416 297.9C144.189 298.14 143.909 298.26 143.576 298.26ZM144.456 300.04V311H142.636V300.04H144.456ZM149.778 301.54V308C149.778 308.533 149.891 308.913 150.118 309.14C150.344 309.353 150.738 309.46 151.298 309.46H152.638V311H150.998C149.984 311 149.224 310.767 148.718 310.3C148.211 309.833 147.958 309.067 147.958 308V301.54H146.538V300.04H147.958V297.28H149.778V300.04H152.638V301.54H149.778ZM160.283 299.84C161.109 299.84 161.856 300.02 162.523 300.38C163.189 300.727 163.709 301.253 164.083 301.96C164.469 302.667 164.663 303.527 164.663 304.54V311H162.863V304.8C162.863 303.707 162.589 302.873 162.043 302.3C161.496 301.713 160.749 301.42 159.803 301.42C158.843 301.42 158.076 301.72 157.503 302.32C156.943 302.92 156.663 303.793 156.663 304.94V311H154.843V296.2H156.663V301.6C157.023 301.04 157.516 300.607 158.143 300.3C158.783 299.993 159.496 299.84 160.283 299.84ZM44.6148 330.04L38.0148 346.16H36.1348L38.2948 340.88L33.8748 330.04H35.8948L39.3348 338.92L42.7348 330.04H44.6148ZM51.2243 341.18C50.1976 341.18 49.2643 340.947 48.4243 340.48C47.5976 340.013 46.9443 339.353 46.4643 338.5C45.9976 337.633 45.7643 336.633 45.7643 335.5C45.7643 334.38 46.0043 333.393 46.4843 332.54C46.9776 331.673 47.6443 331.013 48.4843 330.56C49.3243 330.093 50.2643 329.86 51.3043 329.86C52.3443 329.86 53.2843 330.093 54.1243 330.56C54.9643 331.013 55.6243 331.667 56.1043 332.52C56.5976 333.373 56.8443 334.367 56.8443 335.5C56.8443 336.633 56.591 337.633 56.0843 338.5C55.591 339.353 54.9176 340.013 54.0643 340.48C53.211 340.947 52.2643 341.18 51.2243 341.18ZM51.2243 339.58C51.8776 339.58 52.491 339.427 53.0643 339.12C53.6376 338.813 54.0976 338.353 54.4443 337.74C54.8043 337.127 54.9843 336.38 54.9843 335.5C54.9843 334.62 54.811 333.873 54.4643 333.26C54.1176 332.647 53.6643 332.193 53.1043 331.9C52.5443 331.593 51.9376 331.44 51.2843 331.44C50.6176 331.44 50.0043 331.593 49.4443 331.9C48.8976 332.193 48.4576 332.647 48.1243 333.26C47.791 333.873 47.6243 334.62 47.6243 335.5C47.6243 336.393 47.7843 337.147 48.1043 337.76C48.4376 338.373 48.8776 338.833 49.4243 339.14C49.971 339.433 50.571 339.58 51.2243 339.58ZM68.9573 330.04V341H67.1373V339.38C66.7906 339.94 66.3039 340.38 65.6773 340.7C65.0639 341.007 64.3839 341.16 63.6373 341.16C62.7839 341.16 62.0173 340.987 61.3373 340.64C60.6573 340.28 60.1173 339.747 59.7173 339.04C59.3306 338.333 59.1373 337.473 59.1373 336.46V330.04H60.9373V336.22C60.9373 337.3 61.2106 338.133 61.7573 338.72C62.3039 339.293 63.0506 339.58 63.9973 339.58C64.9706 339.58 65.7373 339.28 66.2973 338.68C66.8573 338.08 67.1373 337.207 67.1373 336.06V330.04H68.9573ZM73.8502 331.82C74.1702 331.193 74.6236 330.707 75.2102 330.36C75.8102 330.013 76.5369 329.84 77.3902 329.84V331.72H76.9102C74.8702 331.72 73.8502 332.827 73.8502 335.04V341H72.0302V330.04H73.8502V331.82ZM89.2832 331.54H86.9832V341H85.1632V331.54H83.7432V330.04H85.1632V329.26C85.1632 328.033 85.4765 327.14 86.1032 326.58C86.7432 326.007 87.7632 325.72 89.1632 325.72V327.24C88.3632 327.24 87.7965 327.4 87.4632 327.72C87.1432 328.027 86.9832 328.54 86.9832 329.26V330.04H89.2832V331.54ZM93.2252 331.82C93.5452 331.193 93.9986 330.707 94.5852 330.36C95.1852 330.013 95.9119 329.84 96.7652 329.84V331.72H96.2852C94.2452 331.72 93.2252 332.827 93.2252 335.04V341H91.4052V330.04H93.2252V331.82ZM99.8062 328.26C99.4595 328.26 99.1662 328.14 98.9262 327.9C98.6862 327.66 98.5662 327.367 98.5662 327.02C98.5662 326.673 98.6862 326.38 98.9262 326.14C99.1662 325.9 99.4595 325.78 99.8062 325.78C100.14 325.78 100.42 325.9 100.646 326.14C100.886 326.38 101.006 326.673 101.006 327.02C101.006 327.367 100.886 327.66 100.646 327.9C100.42 328.14 100.14 328.26 99.8062 328.26ZM100.686 330.04V341H98.8662V330.04H100.686ZM113.788 335.1C113.788 335.447 113.768 335.813 113.728 336.2H104.968C105.035 337.28 105.401 338.127 106.068 338.74C106.748 339.34 107.568 339.64 108.528 339.64C109.315 339.64 109.968 339.46 110.488 339.1C111.021 338.727 111.395 338.233 111.608 337.62H113.568C113.275 338.673 112.688 339.533 111.808 340.2C110.928 340.853 109.835 341.18 108.528 341.18C107.488 341.18 106.555 340.947 105.728 340.48C104.915 340.013 104.275 339.353 103.808 338.5C103.341 337.633 103.108 336.633 103.108 335.5C103.108 334.367 103.335 333.373 103.788 332.52C104.241 331.667 104.875 331.013 105.688 330.56C106.515 330.093 107.461 329.86 108.528 329.86C109.568 329.86 110.488 330.087 111.288 330.54C112.088 330.993 112.701 331.62 113.128 332.42C113.568 333.207 113.788 334.1 113.788 335.1ZM111.908 334.72C111.908 334.027 111.755 333.433 111.448 332.94C111.141 332.433 110.721 332.053 110.188 331.8C109.668 331.533 109.088 331.4 108.448 331.4C107.528 331.4 106.741 331.693 106.088 332.28C105.448 332.867 105.081 333.68 104.988 334.72H111.908ZM121.53 329.84C122.864 329.84 123.944 330.247 124.77 331.06C125.597 331.86 126.01 333.02 126.01 334.54V341H124.21V334.8C124.21 333.707 123.937 332.873 123.39 332.3C122.844 331.713 122.097 331.42 121.15 331.42C120.19 331.42 119.424 331.72 118.85 332.32C118.29 332.92 118.01 333.793 118.01 334.94V341H116.19V330.04H118.01V331.6C118.37 331.04 118.857 330.607 119.47 330.3C120.097 329.993 120.784 329.84 121.53 329.84ZM128.303 335.48C128.303 334.36 128.53 333.38 128.983 332.54C129.437 331.687 130.057 331.027 130.843 330.56C131.643 330.093 132.537 329.86 133.523 329.86C134.377 329.86 135.17 330.06 135.903 330.46C136.637 330.847 137.197 331.36 137.583 332V326.2H139.423V341H137.583V338.94C137.223 339.593 136.69 340.133 135.983 340.56C135.277 340.973 134.45 341.18 133.503 341.18C132.53 341.18 131.643 340.94 130.843 340.46C130.057 339.98 129.437 339.307 128.983 338.44C128.53 337.573 128.303 336.587 128.303 335.48ZM137.583 335.5C137.583 334.673 137.417 333.953 137.083 333.34C136.75 332.727 136.297 332.26 135.723 331.94C135.163 331.607 134.543 331.44 133.863 331.44C133.183 331.44 132.563 331.6 132.003 331.92C131.443 332.24 130.997 332.707 130.663 333.32C130.33 333.933 130.163 334.653 130.163 335.48C130.163 336.32 130.33 337.053 130.663 337.68C130.997 338.293 131.443 338.767 132.003 339.1C132.563 339.42 133.183 339.58 133.863 339.58C134.543 339.58 135.163 339.42 135.723 339.1C136.297 338.767 136.75 338.293 137.083 337.68C137.417 337.053 137.583 336.327 137.583 335.5ZM146.379 341.18C145.539 341.18 144.786 341.04 144.119 340.76C143.452 340.467 142.926 340.067 142.539 339.56C142.152 339.04 141.939 338.447 141.899 337.78H143.779C143.832 338.327 144.086 338.773 144.539 339.12C145.006 339.467 145.612 339.64 146.359 339.64C147.052 339.64 147.599 339.487 147.999 339.18C148.399 338.873 148.599 338.487 148.599 338.02C148.599 337.54 148.386 337.187 147.959 336.96C147.532 336.72 146.872 336.487 145.979 336.26C145.166 336.047 144.499 335.833 143.979 335.62C143.472 335.393 143.032 335.067 142.659 334.64C142.299 334.2 142.119 333.627 142.119 332.92C142.119 332.36 142.286 331.847 142.619 331.38C142.952 330.913 143.426 330.547 144.039 330.28C144.652 330 145.352 329.86 146.139 329.86C147.352 329.86 148.332 330.167 149.079 330.78C149.826 331.393 150.226 332.233 150.279 333.3H148.459C148.419 332.727 148.186 332.267 147.759 331.92C147.346 331.573 146.786 331.4 146.079 331.4C145.426 331.4 144.906 331.54 144.519 331.82C144.132 332.1 143.939 332.467 143.939 332.92C143.939 333.28 144.052 333.58 144.279 333.82C144.519 334.047 144.812 334.233 145.159 334.38C145.519 334.513 146.012 334.667 146.639 334.84C147.426 335.053 148.066 335.267 148.559 335.48C149.052 335.68 149.472 335.987 149.819 336.4C150.179 336.813 150.366 337.353 150.379 338.02C150.379 338.62 150.212 339.16 149.879 339.64C149.546 340.12 149.072 340.5 148.459 340.78C147.859 341.047 147.166 341.18 146.379 341.18ZM155.308 327.06L155.088 337.06H153.568L153.348 327.06H155.308ZM154.408 341.12C154.062 341.12 153.768 341 153.528 340.76C153.288 340.52 153.168 340.227 153.168 339.88C153.168 339.533 153.288 339.24 153.528 339C153.768 338.76 154.062 338.64 154.408 338.64C154.742 338.64 155.022 338.76 155.248 339C155.488 339.24 155.608 339.533 155.608 339.88C155.608 340.227 155.488 340.52 155.248 340.76C155.022 341 154.742 341.12 154.408 341.12Z" fill="#0A0A0A"/>
<path d="M174 530C182.837 530 190 537.163 190 546V693C190 701.837 182.837 709 174 709H16C7.16344 709 0 701.837 0 693V546C0 537.163 7.16345 530 16 530H174Z" fill="#FF7272"/>
<rect x="509" y="193" width="159" height="190" rx="16" transform="rotate(90 509 193)" fill="#FFB6FF"/>
<path d="M361.86 270.14C361.86 271.3 361.46 272.267 360.66 273.04C359.873 273.8 358.667 274.18 357.04 274.18H354.36V280H352.54V266.06H357.04C358.613 266.06 359.807 266.44 360.62 267.2C361.447 267.96 361.86 268.94 361.86 270.14ZM357.04 272.68C358.053 272.68 358.8 272.46 359.28 272.02C359.76 271.58 360 270.953 360 270.14C360 268.42 359.013 267.56 357.04 267.56H354.36V272.68H357.04ZM365.942 265.2V280H364.122V265.2H365.942ZM368.364 274.48C368.364 273.36 368.591 272.38 369.044 271.54C369.497 270.687 370.117 270.027 370.904 269.56C371.704 269.093 372.591 268.86 373.564 268.86C374.524 268.86 375.357 269.067 376.064 269.48C376.771 269.893 377.297 270.413 377.644 271.04V269.04H379.484V280H377.644V277.96C377.284 278.6 376.744 279.133 376.024 279.56C375.317 279.973 374.491 280.18 373.544 280.18C372.571 280.18 371.691 279.94 370.904 279.46C370.117 278.98 369.497 278.307 369.044 277.44C368.591 276.573 368.364 275.587 368.364 274.48ZM377.644 274.5C377.644 273.673 377.477 272.953 377.144 272.34C376.811 271.727 376.357 271.26 375.784 270.94C375.224 270.607 374.604 270.44 373.924 270.44C373.244 270.44 372.624 270.6 372.064 270.92C371.504 271.24 371.057 271.707 370.724 272.32C370.391 272.933 370.224 273.653 370.224 274.48C370.224 275.32 370.391 276.053 370.724 276.68C371.057 277.293 371.504 277.767 372.064 278.1C372.624 278.42 373.244 278.58 373.924 278.58C374.604 278.58 375.224 278.42 375.784 278.1C376.357 277.767 376.811 277.293 377.144 276.68C377.477 276.053 377.644 275.327 377.644 274.5ZM392 269.04L385.4 285.16H383.52L385.68 279.88L381.26 269.04H383.28L386.72 277.92L390.12 269.04H392ZM409.721 270.1C409.334 269.287 408.774 268.66 408.041 268.22C407.308 267.767 406.454 267.54 405.481 267.54C404.508 267.54 403.628 267.767 402.841 268.22C402.068 268.66 401.454 269.3 401.001 270.14C400.561 270.967 400.341 271.927 400.341 273.02C400.341 274.113 400.561 275.073 401.001 275.9C401.454 276.727 402.068 277.367 402.841 277.82C403.628 278.26 404.508 278.48 405.481 278.48C406.841 278.48 407.961 278.073 408.841 277.26C409.721 276.447 410.234 275.347 410.381 273.96H404.821V272.48H412.321V273.88C412.214 275.027 411.854 276.08 411.241 277.04C410.628 277.987 409.821 278.74 408.821 279.3C407.821 279.847 406.708 280.12 405.481 280.12C404.188 280.12 403.008 279.82 401.941 279.22C400.874 278.607 400.028 277.76 399.401 276.68C398.788 275.6 398.481 274.38 398.481 273.02C398.481 271.66 398.788 270.44 399.401 269.36C400.028 268.267 400.874 267.42 401.941 266.82C403.008 266.207 404.188 265.9 405.481 265.9C406.961 265.9 408.268 266.267 409.401 267C410.548 267.733 411.381 268.767 411.901 270.1H409.721ZM414.048 274.48C414.048 273.36 414.274 272.38 414.728 271.54C415.181 270.687 415.801 270.027 416.588 269.56C417.388 269.093 418.274 268.86 419.248 268.86C420.208 268.86 421.041 269.067 421.748 269.48C422.454 269.893 422.981 270.413 423.328 271.04V269.04H425.168V280H423.328V277.96C422.968 278.6 422.428 279.133 421.708 279.56C421.001 279.973 420.174 280.18 419.228 280.18C418.254 280.18 417.374 279.94 416.588 279.46C415.801 278.98 415.181 278.307 414.728 277.44C414.274 276.573 414.048 275.587 414.048 274.48ZM423.328 274.5C423.328 273.673 423.161 272.953 422.828 272.34C422.494 271.727 422.041 271.26 421.468 270.94C420.908 270.607 420.288 270.44 419.608 270.44C418.928 270.44 418.308 270.6 417.748 270.92C417.188 271.24 416.741 271.707 416.408 272.32C416.074 272.933 415.908 273.653 415.908 274.48C415.908 275.32 416.074 276.053 416.408 276.68C416.741 277.293 417.188 277.767 417.748 278.1C418.308 278.42 418.928 278.58 419.608 278.58C420.288 278.58 420.908 278.42 421.468 278.1C422.041 277.767 422.494 277.293 422.828 276.68C423.161 276.053 423.328 275.327 423.328 274.5ZM441.423 268.84C442.276 268.84 443.036 269.02 443.703 269.38C444.37 269.727 444.896 270.253 445.283 270.96C445.67 271.667 445.863 272.527 445.863 273.54V280H444.063V273.8C444.063 272.707 443.79 271.873 443.243 271.3C442.71 270.713 441.983 270.42 441.063 270.42C440.116 270.42 439.363 270.727 438.803 271.34C438.243 271.94 437.963 272.813 437.963 273.96V280H436.163V273.8C436.163 272.707 435.89 271.873 435.343 271.3C434.81 270.713 434.083 270.42 433.163 270.42C432.216 270.42 431.463 270.727 430.903 271.34C430.343 271.94 430.063 272.813 430.063 273.96V280H428.243V269.04H430.063V270.62C430.423 270.047 430.903 269.607 431.503 269.3C432.116 268.993 432.79 268.84 433.523 268.84C434.443 268.84 435.256 269.047 435.963 269.46C436.67 269.873 437.196 270.48 437.543 271.28C437.85 270.507 438.356 269.907 439.063 269.48C439.77 269.053 440.556 268.84 441.423 268.84ZM458.849 274.1C458.849 274.447 458.829 274.813 458.789 275.2H450.029C450.095 276.28 450.462 277.127 451.129 277.74C451.809 278.34 452.629 278.64 453.589 278.64C454.375 278.64 455.029 278.46 455.549 278.1C456.082 277.727 456.455 277.233 456.669 276.62H458.629C458.335 277.673 457.749 278.533 456.869 279.2C455.989 279.853 454.895 280.18 453.589 280.18C452.549 280.18 451.615 279.947 450.789 279.48C449.975 279.013 449.335 278.353 448.869 277.5C448.402 276.633 448.169 275.633 448.169 274.5C448.169 273.367 448.395 272.373 448.849 271.52C449.302 270.667 449.935 270.013 450.749 269.56C451.575 269.093 452.522 268.86 453.589 268.86C454.629 268.86 455.549 269.087 456.349 269.54C457.149 269.993 457.762 270.62 458.189 271.42C458.629 272.207 458.849 273.1 458.849 274.1ZM456.969 273.72C456.969 273.027 456.815 272.433 456.509 271.94C456.202 271.433 455.782 271.053 455.249 270.8C454.729 270.533 454.149 270.4 453.509 270.4C452.589 270.4 451.802 270.693 451.149 271.28C450.509 271.867 450.142 272.68 450.049 273.72H456.969ZM465.131 280.18C464.291 280.18 463.538 280.04 462.871 279.76C462.204 279.467 461.678 279.067 461.291 278.56C460.904 278.04 460.691 277.447 460.651 276.78H462.531C462.584 277.327 462.838 277.773 463.291 278.12C463.758 278.467 464.364 278.64 465.111 278.64C465.804 278.64 466.351 278.487 466.751 278.18C467.151 277.873 467.351 277.487 467.351 277.02C467.351 276.54 467.138 276.187 466.711 275.96C466.284 275.72 465.624 275.487 464.731 275.26C463.918 275.047 463.251 274.833 462.731 274.62C462.224 274.393 461.784 274.067 461.411 273.64C461.051 273.2 460.871 272.627 460.871 271.92C460.871 271.36 461.038 270.847 461.371 270.38C461.704 269.913 462.178 269.547 462.791 269.28C463.404 269 464.104 268.86 464.891 268.86C466.104 268.86 467.084 269.167 467.831 269.78C468.578 270.393 468.978 271.233 469.031 272.3H467.211C467.171 271.727 466.938 271.267 466.511 270.92C466.098 270.573 465.538 270.4 464.831 270.4C464.178 270.4 463.658 270.54 463.271 270.82C462.884 271.1 462.691 271.467 462.691 271.92C462.691 272.28 462.804 272.58 463.031 272.82C463.271 273.047 463.564 273.233 463.911 273.38C464.271 273.513 464.764 273.667 465.391 273.84C466.178 274.053 466.818 274.267 467.311 274.48C467.804 274.68 468.224 274.987 468.571 275.4C468.931 275.813 469.118 276.353 469.131 277.02C469.131 277.62 468.964 278.16 468.631 278.64C468.298 279.12 467.824 279.5 467.211 279.78C466.611 280.047 465.918 280.18 465.131 280.18ZM474.06 266.06L473.84 276.06H472.32L472.1 266.06H474.06ZM473.16 280.12C472.813 280.12 472.52 280 472.28 279.76C472.04 279.52 471.92 279.227 471.92 278.88C471.92 278.533 472.04 278.24 472.28 278C472.52 277.76 472.813 277.64 473.16 277.64C473.493 277.64 473.773 277.76 474 278C474.24 278.24 474.36 278.533 474.36 278.88C474.36 279.227 474.24 279.52 474 279.76C473.773 280 473.493 280.12 473.16 280.12Z" fill="black"/>
<path d="M335 759C326.163 759 319 751.837 319 743V383C319 374.163 326.163 367 335 367H493C501.837 367 509 374.163 509 383V743C509 751.837 501.837 759 493 759H335Z" fill="#F6F6F6"/>
<path d="M361.744 460.06L357.704 474H355.664L352.424 462.78L349.064 474L347.044 474.02L343.144 460.06H345.084L348.124 471.88L351.484 460.06H353.524L356.724 471.84L359.784 460.06H361.744ZM363.055 468.48C363.055 467.36 363.282 466.38 363.735 465.54C364.189 464.687 364.809 464.027 365.595 463.56C366.395 463.093 367.282 462.86 368.255 462.86C369.215 462.86 370.049 463.067 370.755 463.48C371.462 463.893 371.989 464.413 372.335 465.04V463.04H374.175V474H372.335V471.96C371.975 472.6 371.435 473.133 370.715 473.56C370.009 473.973 369.182 474.18 368.235 474.18C367.262 474.18 366.382 473.94 365.595 473.46C364.809 472.98 364.189 472.307 363.735 471.44C363.282 470.573 363.055 469.587 363.055 468.48ZM372.335 468.5C372.335 467.673 372.169 466.953 371.835 466.34C371.502 465.727 371.049 465.26 370.475 464.94C369.915 464.607 369.295 464.44 368.615 464.44C367.935 464.44 367.315 464.6 366.755 464.92C366.195 465.24 365.749 465.707 365.415 466.32C365.082 466.933 364.915 467.653 364.915 468.48C364.915 469.32 365.082 470.053 365.415 470.68C365.749 471.293 366.195 471.767 366.755 472.1C367.315 472.42 367.935 472.58 368.615 472.58C369.295 472.58 369.915 472.42 370.475 472.1C371.049 471.767 371.502 471.293 371.835 470.68C372.169 470.053 372.335 469.327 372.335 468.5ZM382.591 462.84C383.924 462.84 385.004 463.247 385.831 464.06C386.658 464.86 387.071 466.02 387.071 467.54V474H385.271V467.8C385.271 466.707 384.998 465.873 384.451 465.3C383.904 464.713 383.158 464.42 382.211 464.42C381.251 464.42 380.484 464.72 379.911 465.32C379.351 465.92 379.071 466.793 379.071 467.94V474H377.251V463.04H379.071V464.6C379.431 464.04 379.918 463.607 380.531 463.3C381.158 462.993 381.844 462.84 382.591 462.84ZM392.264 464.54V471C392.264 471.533 392.377 471.913 392.604 472.14C392.831 472.353 393.224 472.46 393.784 472.46H395.124V474H393.484C392.471 474 391.711 473.767 391.204 473.3C390.697 472.833 390.444 472.067 390.444 471V464.54H389.024V463.04H390.444V460.28H392.264V463.04H395.124V464.54H392.264ZM404.881 464.54V471C404.881 471.533 404.994 471.913 405.221 472.14C405.448 472.353 405.841 472.46 406.401 472.46H407.741V474H406.101C405.088 474 404.328 473.767 403.821 473.3C403.314 472.833 403.061 472.067 403.061 471V464.54H401.641V463.04H403.061V460.28H404.881V463.04H407.741V464.54H404.881ZM414.726 474.18C413.7 474.18 412.766 473.947 411.926 473.48C411.1 473.013 410.446 472.353 409.966 471.5C409.5 470.633 409.266 469.633 409.266 468.5C409.266 467.38 409.506 466.393 409.986 465.54C410.48 464.673 411.146 464.013 411.986 463.56C412.826 463.093 413.766 462.86 414.806 462.86C415.846 462.86 416.786 463.093 417.626 463.56C418.466 464.013 419.126 464.667 419.606 465.52C420.1 466.373 420.346 467.367 420.346 468.5C420.346 469.633 420.093 470.633 419.586 471.5C419.093 472.353 418.42 473.013 417.566 473.48C416.713 473.947 415.766 474.18 414.726 474.18ZM414.726 472.58C415.38 472.58 415.993 472.427 416.566 472.12C417.14 471.813 417.6 471.353 417.946 470.74C418.306 470.127 418.486 469.38 418.486 468.5C418.486 467.62 418.313 466.873 417.966 466.26C417.62 465.647 417.166 465.193 416.606 464.9C416.046 464.593 415.44 464.44 414.786 464.44C414.12 464.44 413.506 464.593 412.946 464.9C412.4 465.193 411.96 465.647 411.626 466.26C411.293 466.873 411.126 467.62 411.126 468.5C411.126 469.393 411.286 470.147 411.606 470.76C411.94 471.373 412.38 471.833 412.926 472.14C413.473 472.433 414.073 472.58 414.726 472.58ZM427.391 468.5C427.391 467.367 427.618 466.38 428.071 465.54C428.525 464.687 429.151 464.027 429.951 463.56C430.765 463.093 431.691 462.86 432.731 462.86C434.078 462.86 435.185 463.187 436.051 463.84C436.931 464.493 437.511 465.4 437.791 466.56H435.831C435.645 465.893 435.278 465.367 434.731 464.98C434.198 464.593 433.531 464.4 432.731 464.4C431.691 464.4 430.851 464.76 430.211 465.48C429.571 466.187 429.251 467.193 429.251 468.5C429.251 469.82 429.571 470.84 430.211 471.56C430.851 472.28 431.691 472.64 432.731 472.64C433.531 472.64 434.198 472.453 434.731 472.08C435.265 471.707 435.631 471.173 435.831 470.48H437.791C437.498 471.6 436.911 472.5 436.031 473.18C435.151 473.847 434.051 474.18 432.731 474.18C431.691 474.18 430.765 473.947 429.951 473.48C429.151 473.013 428.525 472.353 428.071 471.5C427.618 470.647 427.391 469.647 427.391 468.5ZM445.66 462.84C446.486 462.84 447.233 463.02 447.9 463.38C448.566 463.727 449.086 464.253 449.46 464.96C449.846 465.667 450.04 466.527 450.04 467.54V474H448.24V467.8C448.24 466.707 447.966 465.873 447.42 465.3C446.873 464.713 446.126 464.42 445.18 464.42C444.22 464.42 443.453 464.72 442.88 465.32C442.32 465.92 442.04 466.793 442.04 467.94V474H440.22V459.2H442.04V464.6C442.4 464.04 442.893 463.607 443.52 463.3C444.16 462.993 444.873 462.84 445.66 462.84ZM463.013 468.1C463.013 468.447 462.993 468.813 462.953 469.2H454.193C454.259 470.28 454.626 471.127 455.293 471.74C455.973 472.34 456.793 472.64 457.753 472.64C458.539 472.64 459.193 472.46 459.713 472.1C460.246 471.727 460.619 471.233 460.833 470.62H462.793C462.499 471.673 461.913 472.533 461.033 473.2C460.153 473.853 459.059 474.18 457.753 474.18C456.713 474.18 455.779 473.947 454.953 473.48C454.139 473.013 453.499 472.353 453.033 471.5C452.566 470.633 452.333 469.633 452.333 468.5C452.333 467.367 452.559 466.373 453.013 465.52C453.466 464.667 454.099 464.013 454.913 463.56C455.739 463.093 456.686 462.86 457.753 462.86C458.793 462.86 459.713 463.087 460.513 463.54C461.313 463.993 461.926 464.62 462.353 465.42C462.793 466.207 463.013 467.1 463.013 468.1ZM461.133 467.72C461.133 467.027 460.979 466.433 460.673 465.94C460.366 465.433 459.946 465.053 459.413 464.8C458.893 464.533 458.313 464.4 457.673 464.4C456.753 464.4 455.966 464.693 455.313 465.28C454.673 465.867 454.306 466.68 454.213 467.72H461.133ZM464.735 468.5C464.735 467.367 464.962 466.38 465.415 465.54C465.868 464.687 466.495 464.027 467.295 463.56C468.108 463.093 469.035 462.86 470.075 462.86C471.422 462.86 472.528 463.187 473.395 463.84C474.275 464.493 474.855 465.4 475.135 466.56H473.175C472.988 465.893 472.622 465.367 472.075 464.98C471.542 464.593 470.875 464.4 470.075 464.4C469.035 464.4 468.195 464.76 467.555 465.48C466.915 466.187 466.595 467.193 466.595 468.5C466.595 469.82 466.915 470.84 467.555 471.56C468.195 472.28 469.035 472.64 470.075 472.64C470.875 472.64 471.542 472.453 472.075 472.08C472.608 471.707 472.975 471.173 473.175 470.48H475.135C474.842 471.6 474.255 472.5 473.375 473.18C472.495 473.847 471.395 474.18 470.075 474.18C469.035 474.18 468.108 473.947 467.295 473.48C466.495 473.013 465.868 472.353 465.415 471.5C464.962 470.647 464.735 469.647 464.735 468.5ZM483.683 474L479.383 469.16V474H477.563V459.2H479.383V467.9L483.603 463.04H486.143L480.983 468.5L486.163 474H483.683ZM369.005 493.04L362.405 509.16H360.525L362.685 503.88L358.265 493.04H360.285L363.725 501.92L367.125 493.04H369.005ZM375.615 504.18C374.588 504.18 373.655 503.947 372.815 503.48C371.988 503.013 371.335 502.353 370.855 501.5C370.388 500.633 370.155 499.633 370.155 498.5C370.155 497.38 370.395 496.393 370.875 495.54C371.368 494.673 372.035 494.013 372.875 493.56C373.715 493.093 374.655 492.86 375.695 492.86C376.735 492.86 377.675 493.093 378.515 493.56C379.355 494.013 380.015 494.667 380.495 495.52C380.988 496.373 381.235 497.367 381.235 498.5C381.235 499.633 380.982 500.633 380.475 501.5C379.982 502.353 379.308 503.013 378.455 503.48C377.602 503.947 376.655 504.18 375.615 504.18ZM375.615 502.58C376.268 502.58 376.882 502.427 377.455 502.12C378.028 501.813 378.488 501.353 378.835 500.74C379.195 500.127 379.375 499.38 379.375 498.5C379.375 497.62 379.202 496.873 378.855 496.26C378.508 495.647 378.055 495.193 377.495 494.9C376.935 494.593 376.328 494.44 375.675 494.44C375.008 494.44 374.395 494.593 373.835 494.9C373.288 495.193 372.848 495.647 372.515 496.26C372.182 496.873 372.015 497.62 372.015 498.5C372.015 499.393 372.175 500.147 372.495 500.76C372.828 501.373 373.268 501.833 373.815 502.14C374.362 502.433 374.962 502.58 375.615 502.58ZM393.348 493.04V504H391.528V502.38C391.181 502.94 390.695 503.38 390.068 503.7C389.455 504.007 388.775 504.16 388.028 504.16C387.175 504.16 386.408 503.987 385.728 503.64C385.048 503.28 384.508 502.747 384.108 502.04C383.721 501.333 383.528 500.473 383.528 499.46V493.04H385.328V499.22C385.328 500.3 385.601 501.133 386.148 501.72C386.695 502.293 387.441 502.58 388.388 502.58C389.361 502.58 390.128 502.28 390.688 501.68C391.248 501.08 391.528 500.207 391.528 499.06V493.04H393.348ZM398.241 494.82C398.561 494.193 399.014 493.707 399.601 493.36C400.201 493.013 400.928 492.84 401.781 492.84V494.72H401.301C399.261 494.72 398.241 495.827 398.241 498.04V504H396.421V493.04H398.241V494.82ZM411.434 494.54V501C411.434 501.533 411.547 501.913 411.774 502.14C412 502.353 412.394 502.46 412.954 502.46H414.294V504H412.654C411.64 504 410.88 503.767 410.374 503.3C409.867 502.833 409.614 502.067 409.614 501V494.54H408.194V493.04H409.614V490.28H411.434V493.04H414.294V494.54H411.434ZM425.939 493.04L419.339 509.16H417.459L419.619 503.88L415.199 493.04H417.219L420.659 501.92L424.059 493.04H425.939ZM429.589 495.06C429.949 494.433 430.482 493.913 431.189 493.5C431.909 493.073 432.742 492.86 433.689 492.86C434.662 492.86 435.542 493.093 436.329 493.56C437.129 494.027 437.755 494.687 438.209 495.54C438.662 496.38 438.889 497.36 438.889 498.48C438.889 499.587 438.662 500.573 438.209 501.44C437.755 502.307 437.129 502.98 436.329 503.46C435.542 503.94 434.662 504.18 433.689 504.18C432.755 504.18 431.929 503.973 431.209 503.56C430.502 503.133 429.962 502.607 429.589 501.98V509.2H427.769V493.04H429.589V495.06ZM437.029 498.48C437.029 497.653 436.862 496.933 436.529 496.32C436.195 495.707 435.742 495.24 435.169 494.92C434.609 494.6 433.989 494.44 433.309 494.44C432.642 494.44 432.022 494.607 431.449 494.94C430.889 495.26 430.435 495.733 430.089 496.36C429.755 496.973 429.589 497.687 429.589 498.5C429.589 499.327 429.755 500.053 430.089 500.68C430.435 501.293 430.889 501.767 431.449 502.1C432.022 502.42 432.642 502.58 433.309 502.58C433.989 502.58 434.609 502.42 435.169 502.1C435.742 501.767 436.195 501.293 436.529 500.68C436.862 500.053 437.029 499.32 437.029 498.48ZM442.224 491.26C441.877 491.26 441.584 491.14 441.344 490.9C441.104 490.66 440.984 490.367 440.984 490.02C440.984 489.673 441.104 489.38 441.344 489.14C441.584 488.9 441.877 488.78 442.224 488.78C442.557 488.78 442.837 488.9 443.064 489.14C443.304 489.38 443.424 489.673 443.424 490.02C443.424 490.367 443.304 490.66 443.064 490.9C442.837 491.14 442.557 491.26 442.224 491.26ZM443.104 493.04V504H441.284V493.04H443.104ZM451.546 492.84C452.879 492.84 453.959 493.247 454.786 494.06C455.613 494.86 456.026 496.02 456.026 497.54V504H454.226V497.8C454.226 496.707 453.953 495.873 453.406 495.3C452.859 494.713 452.113 494.42 451.166 494.42C450.206 494.42 449.439 494.72 448.866 495.32C448.306 495.92 448.026 496.793 448.026 497.94V504H446.206V493.04H448.026V494.6C448.386 494.04 448.873 493.607 449.486 493.3C450.113 492.993 450.799 492.84 451.546 492.84ZM463.519 492.86C464.466 492.86 465.292 493.067 465.999 493.48C466.719 493.893 467.252 494.413 467.599 495.04V493.04H469.439V504.24C469.439 505.24 469.226 506.127 468.799 506.9C468.372 507.687 467.759 508.3 466.959 508.74C466.172 509.18 465.252 509.4 464.199 509.4C462.759 509.4 461.559 509.06 460.599 508.38C459.639 507.7 459.072 506.773 458.899 505.6H460.699C460.899 506.267 461.312 506.8 461.939 507.2C462.566 507.613 463.319 507.82 464.199 507.82C465.199 507.82 466.012 507.507 466.639 506.88C467.279 506.253 467.599 505.373 467.599 504.24V501.94C467.239 502.58 466.706 503.113 465.999 503.54C465.292 503.967 464.466 504.18 463.519 504.18C462.546 504.18 461.659 503.94 460.859 503.46C460.072 502.98 459.452 502.307 458.999 501.44C458.546 500.573 458.319 499.587 458.319 498.48C458.319 497.36 458.546 496.38 458.999 495.54C459.452 494.687 460.072 494.027 460.859 493.56C461.659 493.093 462.546 492.86 463.519 492.86ZM467.599 498.5C467.599 497.673 467.432 496.953 467.099 496.34C466.766 495.727 466.312 495.26 465.739 494.94C465.179 494.607 464.559 494.44 463.879 494.44C463.199 494.44 462.579 494.6 462.019 494.92C461.459 495.24 461.012 495.707 460.679 496.32C460.346 496.933 460.179 497.653 460.179 498.48C460.179 499.32 460.346 500.053 460.679 500.68C461.012 501.293 461.459 501.767 462.019 502.1C462.579 502.42 463.199 502.58 463.879 502.58C464.559 502.58 465.179 502.42 465.739 502.1C466.312 501.767 466.766 501.293 467.099 500.68C467.432 500.053 467.599 499.327 467.599 498.5ZM383.533 534.18C382.693 534.18 381.94 534.04 381.273 533.76C380.607 533.467 380.08 533.067 379.693 532.56C379.307 532.04 379.093 531.447 379.053 530.78H380.933C380.987 531.327 381.24 531.773 381.693 532.12C382.16 532.467 382.767 532.64 383.513 532.64C384.207 532.64 384.753 532.487 385.153 532.18C385.553 531.873 385.753 531.487 385.753 531.02C385.753 530.54 385.54 530.187 385.113 529.96C384.687 529.72 384.027 529.487 383.133 529.26C382.32 529.047 381.653 528.833 381.133 528.62C380.627 528.393 380.187 528.067 379.813 527.64C379.453 527.2 379.273 526.627 379.273 525.92C379.273 525.36 379.44 524.847 379.773 524.38C380.107 523.913 380.58 523.547 381.193 523.28C381.807 523 382.507 522.86 383.293 522.86C384.507 522.86 385.487 523.167 386.233 523.78C386.98 524.393 387.38 525.233 387.433 526.3H385.613C385.573 525.727 385.34 525.267 384.913 524.92C384.5 524.573 383.94 524.4 383.233 524.4C382.58 524.4 382.06 524.54 381.673 524.82C381.287 525.1 381.093 525.467 381.093 525.92C381.093 526.28 381.207 526.58 381.433 526.82C381.673 527.047 381.967 527.233 382.313 527.38C382.673 527.513 383.167 527.667 383.793 527.84C384.58 528.053 385.22 528.267 385.713 528.48C386.207 528.68 386.627 528.987 386.973 529.4C387.333 529.813 387.52 530.353 387.533 531.02C387.533 531.62 387.367 532.16 387.033 532.64C386.7 533.12 386.227 533.5 385.613 533.78C385.013 534.047 384.32 534.18 383.533 534.18ZM391.923 525.06C392.283 524.433 392.816 523.913 393.523 523.5C394.243 523.073 395.076 522.86 396.023 522.86C396.996 522.86 397.876 523.093 398.662 523.56C399.462 524.027 400.089 524.687 400.543 525.54C400.996 526.38 401.223 527.36 401.223 528.48C401.223 529.587 400.996 530.573 400.543 531.44C400.089 532.307 399.462 532.98 398.662 533.46C397.876 533.94 396.996 534.18 396.023 534.18C395.089 534.18 394.263 533.973 393.543 533.56C392.836 533.133 392.296 532.607 391.923 531.98V539.2H390.103V523.04H391.923V525.06ZM399.363 528.48C399.363 527.653 399.196 526.933 398.863 526.32C398.529 525.707 398.076 525.24 397.503 524.92C396.943 524.6 396.323 524.44 395.643 524.44C394.976 524.44 394.356 524.607 393.783 524.94C393.223 525.26 392.769 525.733 392.423 526.36C392.089 526.973 391.923 527.687 391.923 528.5C391.923 529.327 392.089 530.053 392.423 530.68C392.769 531.293 393.223 531.767 393.783 532.1C394.356 532.42 394.976 532.58 395.643 532.58C396.323 532.58 396.943 532.42 397.503 532.1C398.076 531.767 398.529 531.293 398.863 530.68C399.196 530.053 399.363 529.32 399.363 528.48ZM413.618 528.1C413.618 528.447 413.598 528.813 413.558 529.2H404.798C404.865 530.28 405.231 531.127 405.898 531.74C406.578 532.34 407.398 532.64 408.358 532.64C409.145 532.64 409.798 532.46 410.318 532.1C410.851 531.727 411.225 531.233 411.438 530.62H413.398C413.105 531.673 412.518 532.533 411.638 533.2C410.758 533.853 409.665 534.18 408.358 534.18C407.318 534.18 406.385 533.947 405.558 533.48C404.745 533.013 404.105 532.353 403.638 531.5C403.171 530.633 402.938 529.633 402.938 528.5C402.938 527.367 403.165 526.373 403.618 525.52C404.071 524.667 404.705 524.013 405.518 523.56C406.345 523.093 407.291 522.86 408.358 522.86C409.398 522.86 410.318 523.087 411.118 523.54C411.918 523.993 412.531 524.62 412.958 525.42C413.398 526.207 413.618 527.1 413.618 528.1ZM411.738 527.72C411.738 527.027 411.585 526.433 411.278 525.94C410.971 525.433 410.551 525.053 410.018 524.8C409.498 524.533 408.918 524.4 408.278 524.4C407.358 524.4 406.571 524.693 405.918 525.28C405.278 525.867 404.911 526.68 404.818 527.72H411.738ZM426.02 528.1C426.02 528.447 426 528.813 425.96 529.2H417.2C417.267 530.28 417.634 531.127 418.3 531.74C418.98 532.34 419.8 532.64 420.76 532.64C421.547 532.64 422.2 532.46 422.72 532.1C423.254 531.727 423.627 531.233 423.84 530.62H425.8C425.507 531.673 424.92 532.533 424.04 533.2C423.16 533.853 422.067 534.18 420.76 534.18C419.72 534.18 418.787 533.947 417.96 533.48C417.147 533.013 416.507 532.353 416.04 531.5C415.574 530.633 415.34 529.633 415.34 528.5C415.34 527.367 415.567 526.373 416.02 525.52C416.474 524.667 417.107 524.013 417.92 523.56C418.747 523.093 419.694 522.86 420.76 522.86C421.8 522.86 422.72 523.087 423.52 523.54C424.32 523.993 424.934 524.62 425.36 525.42C425.8 526.207 426.02 527.1 426.02 528.1ZM424.14 527.72C424.14 527.027 423.987 526.433 423.68 525.94C423.374 525.433 422.954 525.053 422.42 524.8C421.9 524.533 421.32 524.4 420.68 524.4C419.76 524.4 418.974 524.693 418.32 525.28C417.68 525.867 417.314 526.68 417.22 527.72H424.14ZM427.743 528.48C427.743 527.36 427.969 526.38 428.423 525.54C428.876 524.687 429.496 524.027 430.283 523.56C431.083 523.093 431.976 522.86 432.963 522.86C433.816 522.86 434.609 523.06 435.343 523.46C436.076 523.847 436.636 524.36 437.023 525V519.2H438.863V534H437.023V531.94C436.663 532.593 436.129 533.133 435.423 533.56C434.716 533.973 433.889 534.18 432.943 534.18C431.969 534.18 431.083 533.94 430.283 533.46C429.496 532.98 428.876 532.307 428.423 531.44C427.969 530.573 427.743 529.587 427.743 528.48ZM437.023 528.5C437.023 527.673 436.856 526.953 436.523 526.34C436.189 525.727 435.736 525.26 435.163 524.94C434.603 524.607 433.983 524.44 433.303 524.44C432.623 524.44 432.003 524.6 431.443 524.92C430.883 525.24 430.436 525.707 430.103 526.32C429.769 526.933 429.603 527.653 429.603 528.48C429.603 529.32 429.769 530.053 430.103 530.68C430.436 531.293 430.883 531.767 431.443 532.1C432.003 532.42 432.623 532.58 433.303 532.58C433.983 532.58 434.603 532.42 435.163 532.1C435.736 531.767 436.189 531.293 436.523 530.68C436.856 530.053 437.023 529.327 437.023 528.5ZM445.498 519.88C446.818 519.88 447.885 520.253 448.698 521C449.512 521.747 449.918 522.747 449.918 524C449.918 525.4 449.485 526.44 448.618 527.12C447.752 527.787 446.578 528.12 445.098 528.12L445.038 530.02H443.458L443.378 526.86H443.958C445.278 526.86 446.312 526.66 447.058 526.26C447.805 525.86 448.178 525.107 448.178 524C448.178 523.2 447.938 522.567 447.458 522.1C446.978 521.633 446.332 521.4 445.518 521.4C444.692 521.4 444.038 521.627 443.558 522.08C443.092 522.52 442.858 523.127 442.858 523.9H441.138C441.138 523.1 441.318 522.4 441.678 521.8C442.038 521.187 442.545 520.713 443.198 520.38C443.865 520.047 444.632 519.88 445.498 519.88ZM444.238 534.12C443.892 534.12 443.598 534 443.358 533.76C443.118 533.52 442.998 533.227 442.998 532.88C442.998 532.533 443.118 532.24 443.358 532C443.598 531.76 443.892 531.64 444.238 531.64C444.572 531.64 444.852 531.76 445.078 532C445.318 532.24 445.438 532.533 445.438 532.88C445.438 533.227 445.318 533.52 445.078 533.76C444.852 534 444.572 534.12 444.238 534.12Z" fill="black"/>
<rect x="347.088" y="584.332" width="134" height="51" rx="7.5" fill="#1A1A1A"/>
<rect x="347.088" y="584.332" width="134" height="51" rx="7.5" stroke="#4F4F4F"/>
<path d="M371.391 610.256C371.391 609.355 371.586 608.553 371.976 607.851C372.366 607.14 372.908 606.59 373.601 606.2C374.303 605.801 375.096 605.602 375.98 605.602C377.063 605.602 377.991 605.888 378.762 606.46C379.533 607.032 380.049 607.812 380.309 608.8H377.865C377.683 608.419 377.423 608.128 377.085 607.929C376.756 607.73 376.379 607.63 375.954 607.63C375.269 607.63 374.715 607.868 374.29 608.345C373.865 608.822 373.653 609.459 373.653 610.256C373.653 611.053 373.865 611.69 374.29 612.167C374.715 612.644 375.269 612.882 375.954 612.882C376.379 612.882 376.756 612.782 377.085 612.583C377.423 612.384 377.683 612.093 377.865 611.712H380.309C380.049 612.7 379.533 613.48 378.762 614.052C377.991 614.615 377.063 614.897 375.98 614.897C375.096 614.897 374.303 614.702 373.601 614.312C372.908 613.913 372.366 613.363 371.976 612.661C371.586 611.959 371.391 611.157 371.391 610.256ZM386.129 607.5C386.961 607.5 387.629 607.777 388.131 608.332C388.634 608.878 388.885 609.632 388.885 610.594V614.832H386.675V610.893C386.675 610.408 386.55 610.031 386.298 609.762C386.047 609.493 385.709 609.359 385.284 609.359C384.86 609.359 384.522 609.493 384.27 609.762C384.019 610.031 383.893 610.408 383.893 610.893V614.832H381.67V605.212H383.893V608.553C384.119 608.232 384.426 607.977 384.816 607.786C385.206 607.595 385.644 607.5 386.129 607.5ZM397.268 611.088C397.268 611.296 397.255 611.513 397.229 611.738H392.198C392.233 612.189 392.376 612.535 392.627 612.778C392.887 613.012 393.203 613.129 393.576 613.129C394.131 613.129 394.516 612.895 394.733 612.427H397.099C396.978 612.904 396.757 613.333 396.436 613.714C396.124 614.095 395.73 614.394 395.253 614.611C394.776 614.828 394.243 614.936 393.654 614.936C392.943 614.936 392.311 614.784 391.756 614.481C391.201 614.178 390.768 613.744 390.456 613.181C390.144 612.618 389.988 611.959 389.988 611.205C389.988 610.451 390.14 609.792 390.443 609.229C390.755 608.666 391.188 608.232 391.743 607.929C392.298 607.626 392.935 607.474 393.654 607.474C394.356 607.474 394.98 607.621 395.526 607.916C396.072 608.211 396.497 608.631 396.8 609.177C397.112 609.723 397.268 610.36 397.268 611.088ZM394.993 610.503C394.993 610.122 394.863 609.818 394.603 609.593C394.343 609.368 394.018 609.255 393.628 609.255C393.255 609.255 392.939 609.363 392.679 609.58C392.428 609.797 392.272 610.104 392.211 610.503H394.993ZM397.999 611.205C397.999 610.451 398.15 609.792 398.454 609.229C398.766 608.666 399.195 608.232 399.741 607.929C400.295 607.626 400.928 607.474 401.639 607.474C402.549 607.474 403.307 607.712 403.914 608.189C404.529 608.666 404.932 609.337 405.123 610.204H402.757C402.557 609.649 402.172 609.372 401.6 609.372C401.192 609.372 400.867 609.532 400.625 609.853C400.382 610.165 400.261 610.616 400.261 611.205C400.261 611.794 400.382 612.249 400.625 612.57C400.867 612.882 401.192 613.038 401.6 613.038C402.172 613.038 402.557 612.761 402.757 612.206H405.123C404.932 613.055 404.529 613.723 403.914 614.208C403.298 614.693 402.54 614.936 401.639 614.936C400.928 614.936 400.295 614.784 399.741 614.481C399.195 614.178 398.766 613.744 398.454 613.181C398.15 612.618 397.999 611.959 397.999 611.205ZM410.745 614.832L408.535 611.79V614.832H406.312V605.212H408.535V610.529L410.732 607.578H413.475L410.459 611.218L413.501 614.832H410.745ZM420.054 614.936C419.421 614.936 418.858 614.828 418.364 614.611C417.87 614.394 417.48 614.1 417.194 613.727C416.908 613.346 416.748 612.921 416.713 612.453H418.91C418.936 612.704 419.053 612.908 419.261 613.064C419.469 613.22 419.725 613.298 420.028 613.298C420.305 613.298 420.518 613.246 420.665 613.142C420.821 613.029 420.899 612.886 420.899 612.713C420.899 612.505 420.791 612.353 420.574 612.258C420.357 612.154 420.006 612.041 419.521 611.92C419.001 611.799 418.568 611.673 418.221 611.543C417.874 611.404 417.575 611.192 417.324 610.906C417.073 610.611 416.947 610.217 416.947 609.723C416.947 609.307 417.06 608.93 417.285 608.592C417.519 608.245 417.857 607.972 418.299 607.773C418.75 607.574 419.283 607.474 419.898 607.474C420.808 607.474 421.523 607.699 422.043 608.15C422.572 608.601 422.875 609.199 422.953 609.944H420.899C420.864 609.693 420.752 609.493 420.561 609.346C420.379 609.199 420.136 609.125 419.833 609.125C419.573 609.125 419.374 609.177 419.235 609.281C419.096 609.376 419.027 609.511 419.027 609.684C419.027 609.892 419.135 610.048 419.352 610.152C419.577 610.256 419.924 610.36 420.392 610.464C420.929 610.603 421.367 610.741 421.705 610.88C422.043 611.01 422.338 611.227 422.589 611.53C422.849 611.825 422.983 612.223 422.992 612.726C422.992 613.151 422.871 613.532 422.628 613.87C422.394 614.199 422.052 614.459 421.601 614.65C421.159 614.841 420.643 614.936 420.054 614.936ZM426.575 608.605C426.792 608.267 427.091 607.994 427.472 607.786C427.853 607.578 428.3 607.474 428.811 607.474C429.409 607.474 429.951 607.626 430.436 607.929C430.921 608.232 431.303 608.666 431.58 609.229C431.866 609.792 432.009 610.447 432.009 611.192C432.009 611.937 431.866 612.596 431.58 613.168C431.303 613.731 430.921 614.169 430.436 614.481C429.951 614.784 429.409 614.936 428.811 614.936C428.308 614.936 427.862 614.832 427.472 614.624C427.091 614.416 426.792 614.147 426.575 613.818V618.29H424.352V607.578H426.575V608.605ZM429.747 611.192C429.747 610.637 429.591 610.204 429.279 609.892C428.976 609.571 428.599 609.411 428.148 609.411C427.706 609.411 427.329 609.571 427.017 609.892C426.714 610.213 426.562 610.65 426.562 611.205C426.562 611.76 426.714 612.197 427.017 612.518C427.329 612.839 427.706 612.999 428.148 612.999C428.59 612.999 428.967 612.839 429.279 612.518C429.591 612.189 429.747 611.747 429.747 611.192ZM440.013 611.088C440.013 611.296 440 611.513 439.974 611.738H434.943C434.978 612.189 435.121 612.535 435.372 612.778C435.632 613.012 435.948 613.129 436.321 613.129C436.876 613.129 437.261 612.895 437.478 612.427H439.844C439.723 612.904 439.502 613.333 439.181 613.714C438.869 614.095 438.475 614.394 437.998 614.611C437.521 614.828 436.988 614.936 436.399 614.936C435.688 614.936 435.056 614.784 434.501 614.481C433.946 614.178 433.513 613.744 433.201 613.181C432.889 612.618 432.733 611.959 432.733 611.205C432.733 610.451 432.885 609.792 433.188 609.229C433.5 608.666 433.933 608.232 434.488 607.929C435.043 607.626 435.68 607.474 436.399 607.474C437.101 607.474 437.725 607.621 438.271 607.916C438.817 608.211 439.242 608.631 439.545 609.177C439.857 609.723 440.013 610.36 440.013 611.088ZM437.738 610.503C437.738 610.122 437.608 609.818 437.348 609.593C437.088 609.368 436.763 609.255 436.373 609.255C436 609.255 435.684 609.363 435.424 609.58C435.173 609.797 435.017 610.104 434.956 610.503H437.738ZM448.024 611.088C448.024 611.296 448.011 611.513 447.985 611.738H442.954C442.989 612.189 443.132 612.535 443.383 612.778C443.643 613.012 443.959 613.129 444.332 613.129C444.887 613.129 445.272 612.895 445.489 612.427H447.855C447.734 612.904 447.513 613.333 447.192 613.714C446.88 614.095 446.486 614.394 446.009 614.611C445.532 614.828 444.999 614.936 444.41 614.936C443.699 614.936 443.067 614.784 442.512 614.481C441.957 614.178 441.524 613.744 441.212 613.181C440.9 612.618 440.744 611.959 440.744 611.205C440.744 610.451 440.896 609.792 441.199 609.229C441.511 608.666 441.944 608.232 442.499 607.929C443.054 607.626 443.691 607.474 444.41 607.474C445.112 607.474 445.736 607.621 446.282 607.916C446.828 608.211 447.253 608.631 447.556 609.177C447.868 609.723 448.024 610.36 448.024 611.088ZM445.749 610.503C445.749 610.122 445.619 609.818 445.359 609.593C445.099 609.368 444.774 609.255 444.384 609.255C444.011 609.255 443.695 609.363 443.435 609.58C443.184 609.797 443.028 610.104 442.967 610.503H445.749ZM448.755 611.192C448.755 610.447 448.893 609.792 449.171 609.229C449.457 608.666 449.842 608.232 450.328 607.929C450.813 607.626 451.355 607.474 451.953 607.474C452.429 607.474 452.863 607.574 453.253 607.773C453.651 607.972 453.963 608.241 454.189 608.579V605.212H456.412V614.832H454.189V613.792C453.981 614.139 453.682 614.416 453.292 614.624C452.91 614.832 452.464 614.936 451.953 614.936C451.355 614.936 450.813 614.784 450.328 614.481C449.842 614.169 449.457 613.731 449.171 613.168C448.893 612.596 448.755 611.937 448.755 611.192ZM454.189 611.205C454.189 610.65 454.033 610.213 453.721 609.892C453.417 609.571 453.045 609.411 452.603 609.411C452.161 609.411 451.784 609.571 451.472 609.892C451.168 610.204 451.017 610.637 451.017 611.192C451.017 611.747 451.168 612.189 451.472 612.518C451.784 612.839 452.161 612.999 452.603 612.999C453.045 612.999 453.417 612.839 453.721 612.518C454.033 612.197 454.189 611.76 454.189 611.205Z" fill="#F6F6F6"/>
</svg>
