<svg width="171" height="157" viewBox="0 0 171 157" fill="none" xmlns="http://www.w3.org/2000/svg">
<path fill-rule="evenodd" clip-rule="evenodd" d="M95.1312 124.834C103.184 119.411 118.091 118.466 115.357 106.632C112.685 94.6682 102.643 94.2297 84.1097 83.4297C66.092 71.5615 70.637 63.2713 44.0549 62.1561C18.6994 62.1669 26.4179 98.7021 7.73768 93.0604C-10.9425 87.4186 10.0637 134.082 13.3861 137.535C19.2296 143.61 34.6179 150.858 42.1238 149.831C47.8239 149.071 66.1621 144.851 75.1406 140.472C83.9109 136.385 84.8589 132.113 95.1312 124.834Z" fill="#F8FCCB"/>
<path d="M166.864 7.32715L166.917 7.32858C167.365 7.35506 167.706 7.73926 167.68 8.18671L167.59 9.7348L167.533 10.7705C166.939 21.7667 165.528 31.1133 165.859 38.808L165.91 39.922C166.308 48.2136 168.423 59.9357 170.562 77.6483C170.749 77.7799 170.88 77.9894 170.904 78.2351C170.948 78.6813 170.621 79.078 170.175 79.1212C159.721 80.1342 149.994 80.8085 140.994 81.144L139.764 81.1879L138.358 81.2337C129.259 81.516 116.451 81.653 99.9297 81.645C99.4814 81.6447 99.1185 81.2812 99.1185 80.833C99.1185 80.619 93.3477 9.66306 93.3477 9.66306C93.3477 9.66306 166.642 7.32841 166.864 7.32715Z" fill="#F6F6F6"/>
<path d="M152.719 141.026L153.229 141.078C160.483 141.837 165.245 142.932 167.442 144.308L167.579 144.396C169.265 145.518 169.053 146.685 166.628 148.549C163.977 150.586 157.461 152.506 147.713 153.678C135.508 155.145 119.099 155.381 98.4926 154.106L96.3323 153.971C84.4357 153.25 75.3082 153.055 58.4153 152.963L53.7521 152.937C43.6948 152.866 39.4201 152.728 35.2935 152.285L34.9011 152.242C29.7277 151.65 26.8685 150.569 25.9106 148.874L25.8756 148.811C25.8574 148.776 25.8573 148.777 25.9963 148.636C26.2745 148.354 26.8452 148.026 27.6941 147.683L27.9141 147.597C29.754 146.889 32.6623 146.163 36.6211 145.43L37.371 145.293C45.2746 143.874 57.0611 142.43 72.7227 140.966L75.2415 140.733L77.3918 140.655C112.634 139.392 137.75 139.516 152.719 141.026Z" fill="#F6F6F6"/>
<path fill-rule="evenodd" clip-rule="evenodd" d="M136.381 7.49631C136.684 7.16641 137.198 7.14494 137.528 7.44838C137.858 7.75181 137.879 8.26524 137.576 8.59514C137.576 8.59514 100.657 50.5623 100.321 49.3944C100.137 48.7518 115.662 30.0979 118.105 27.5834L118.782 26.8986C119.928 25.7095 125.598 19.2206 136.381 7.49631Z" fill="#D1D1D1"/>
<path fill-rule="evenodd" clip-rule="evenodd" d="M117.802 16.7031C118.169 16.4465 118.675 16.5364 118.932 16.904C119.188 17.2715 119.098 17.7774 118.731 18.034C117.507 18.8887 98.4136 38.1494 98.0081 37.9961C97.6026 37.8427 99.5595 35.5542 99.5595 35.5542C100.81 34.2454 111.985 22.3696 111.985 22.3696C112.924 21.3678 113.791 20.4645 114.621 19.6281C115.443 18.8 116.503 17.6098 117.802 16.7031Z" fill="#D1D1D1"/>
<path fill-rule="evenodd" clip-rule="evenodd" d="M136.487 141.026L136.997 141.078C144.251 141.837 149.013 142.932 151.21 144.308L151.347 144.396C153.033 145.518 152.821 146.685 150.396 148.549C147.745 150.586 119.099 152.46 98.4926 151.184L96.3323 151.05C84.4357 150.328 75.3082 148.185 58.4153 148.094L53.7521 148.067C43.6948 147.997 39.4201 152.728 35.2935 152.285L34.9011 152.242C29.7277 151.65 26.8685 150.569 25.9106 148.874L25.8756 148.811C25.8574 148.776 25.8573 148.777 25.9963 148.636C26.2745 148.354 26.8452 148.026 27.6941 147.683L27.9141 147.597C29.754 146.889 32.6623 146.163 36.6211 145.43L37.371 145.293C45.2746 143.874 57.0611 142.43 72.7227 140.966L75.2415 140.733L77.3918 140.655C112.634 139.392 121.518 139.516 136.487 141.026Z" fill="#D1D1D1"/>
<path d="M40.3223 80.3462C40.575 81.0086 49.1987 82.0474 53.9252 84.8412C55.7377 85.9126 57.1098 90.5489 57.0209 90.6366C54.8783 92.75 53.7139 93.8269 52.5605 94.4759C48.5058 96.7574 45.3808 96.1644 42.3551 95.6871C38.718 95.1133 36.557 91.1204 37.975 87.8052C38.1971 87.2858 38.7571 86.5269 39.6839 85.4592L39.8073 85.3188C39.8035 85.2807 39.804 85.2416 39.8087 85.202C39.851 84.8442 39.8563 84.4772 39.8243 84.1005L39.7526 83.4252C39.6679 82.6703 39.5041 81.3895 39.2607 80.7512C39.1488 80.4581 39.2958 80.1298 39.589 80.0179C39.8821 79.9061 40.2104 80.0531 40.3223 80.3462Z" fill="#F6F6F6"/>
<path d="M60.2356 88.8068C60.2348 88.6705 60.2691 88.5319 60.3416 88.4047C60.4675 88.1836 60.6817 88.0442 60.9146 88.0056C60.9691 87.9564 61.0061 87.9392 61.0271 87.9593L61.0624 87.9948C61.1937 87.9972 61.3263 88.0316 61.4485 88.1011L63.8356 89.457C68.784 92.286 74.103 96.4935 74.6162 99.6883C75.1977 103.309 71.4073 122.147 70.9692 122.052C70.5312 121.957 62.3202 140.616 62.3154 140.667C62.2993 140.837 54.9999 141.108 47.3211 141.929C44.6376 142.217 51.6069 132.854 54.2288 126.235C58.7254 114.884 60.2356 88.8068 60.2356 88.8068Z" fill="#F6F6F6"/>
<path d="M119.116 98.0643C116.219 97.4326 112.853 97.7498 109.006 99.0328C105.859 100.083 104.135 101.553 103.705 103.431L103.681 103.544L103.804 103.594C106.375 104.631 108.773 104.894 111.017 104.396L111.181 104.359C112.735 103.988 113.998 103.116 115.496 101.568L115.703 101.351C116.056 100.975 116.888 100.064 116.99 99.9545C117.522 99.3842 117.929 98.9909 118.341 98.6697L118.43 98.6013C118.639 98.4445 118.892 98.2928 119.191 98.145L119.281 98.1013L119.116 98.0643Z" fill="#F6F6F6"/>
<path d="M90.5998 93.6015C88.5384 92.9613 86.0928 92.8869 83.26 93.3899L83.127 93.4139L83.1561 93.4723C84.4095 95.9865 85.546 97.5338 86.4955 98.0949L86.5546 98.1287C87.5094 98.6561 89.7842 98.6937 93.2727 98.1734L93.789 98.0936L93.7762 98.0502C93.7631 98.0005 93.7546 97.9489 93.7511 97.896L93.7494 97.8427C93.7494 95.6253 92.7417 94.2666 90.5998 93.6015Z" fill="#F6F6F6"/>
<path d="M67.0745 81.8388C67.0167 82.3007 67.2122 83.998 66.5596 84.7818C66.3009 85.0924 65.6827 85.3148 65.2795 85.119C65.1012 85.0325 65.6571 84.2579 65.9947 83.3825C66.1252 83.0442 65.896 82.6354 65.9947 82.3122C66.0811 82.0296 66.4992 81.826 66.5596 81.6135C66.6556 81.2755 67.1127 81.5336 67.0745 81.8388Z" fill="#F6F6F6"/>
<path d="M68.2034 79.8562C68.1457 80.3181 69.5165 82.4692 68.832 83.1586C67.6683 84.3307 66.5498 82.2754 66.8874 81.3999C67.0179 81.0616 67.0249 80.6528 67.1236 80.3297C67.21 80.047 68.2416 79.5511 68.2034 79.8562Z" fill="#F6F6F6"/>
<path d="M80.8535 113.826C80.6008 114.774 80.3865 120.337 81.5937 123.477C82.0355 124.627 82.6839 125.469 83.5613 125.796C84.2989 126.059 85.0657 126.223 85.8488 126.331C87.5365 126.564 100.433 127.661 106.222 126.904C112.012 126.147 111.684 126.077 114.331 125.608C115.611 125.381 117.075 125.139 118.384 124.626C119.348 124.249 120.228 123.725 120.918 122.981C121.535 122.315 121.916 121.183 122.03 119.917C122.175 118.309 121.928 116.182 121.687 115.112C121.687 115.052 121.674 115.029 121.687 115.01C121.747 114.923 120.967 114.488 118.384 114.382C113.956 114.199 107.051 114.545 100.361 114.476C91.2323 114.381 82.5071 113.545 81.0607 113.697C80.9281 113.711 80.8584 113.808 80.8535 113.826Z" fill="#F6F6F6"/>
<path d="M39.3842 84.133C39.8325 84.1302 40.1984 84.491 40.2019 84.9392C40.2022 84.9861 40.1985 85.0321 40.1911 85.0769L40.2608 85.032C40.6502 84.7914 41.1323 84.6696 41.0292 85.2587C40.8855 86.08 38.8292 87.0351 38.8292 88.6156C38.8292 90.9617 39.7339 93.2072 42.9879 94.1457C52.1017 96.7744 56.6027 92.115 58.2876 90.1053C58.2868 89.9689 58.3211 89.8304 58.3936 89.7032C58.5195 89.482 58.7337 89.3426 58.9666 89.304C59.0211 89.2549 59.0581 89.2376 59.0791 89.2577L59.1144 89.2932C59.2457 89.2956 59.3783 89.33 59.5004 89.3996L61.8876 90.7554C66.836 93.5845 72.155 97.7919 72.6682 100.987C73.2497 104.607 69.4593 123.446 69.0212 123.351C68.5832 123.256 60.3722 141.915 60.3674 141.965C60.3456 142.195 47.0605 142.607 37.478 144.311C31.1942 145.428 27.1049 147.522 26.9727 147.64C26.6387 147.939 26.2507 148.457 25.9517 148.123C23.9446 145.881 23.4095 139.58 24.1848 130.307L23.7788 130.265C15.4734 129.426 11.3766 127.09 11.6554 121.831C12.3395 108.927 15.9722 98.8155 20.198 92.5544C23.9501 86.9951 29.9438 84.2007 39.3842 84.133Z" fill="#F6F6F6"/>
<path fill-rule="evenodd" clip-rule="evenodd" d="M58.2878 90.1053C58.2871 89.9689 58.3214 89.8304 58.3938 89.7032C58.5198 89.482 58.734 89.3426 58.9669 89.304C59.0213 89.2549 59.0583 89.2376 59.0793 89.2577L59.1146 89.2932C59.2459 89.2956 59.3785 89.33 59.5007 89.3996L61.8879 90.7554C66.8363 93.5845 72.1553 97.792 72.6685 100.987C73.25 104.607 69.4595 123.446 69.0215 123.351C68.5834 123.256 60.3725 141.915 60.3677 141.965C60.3515 142.135 53.0522 142.406 45.3734 143.228C42.6898 143.515 49.6591 134.152 52.2811 127.533C56.7776 116.182 58.2878 90.1053 58.2878 90.1053Z" fill="#D1D1D1"/>
<path d="M58.714 89.8407C58.7299 90.2885 58.3506 90.6636 57.9024 90.6523C55.6633 90.5955 55.3074 86.7454 55.5221 86.7298C55.8194 86.7083 56.3274 88.5372 57.3271 89.2033C58.0894 89.7113 58.6704 88.6064 58.714 89.8407Z" fill="#F6F6F6"/>
<path d="M38.4206 79.5556C38.7303 79.1847 39.3089 79.5135 39.5112 79.9134C39.7135 80.3134 39.5533 80.8016 39.1533 81.004C37.1123 82.0364 34.3947 81.6532 32.7204 80.2202C29.8119 77.7309 29.6929 71.2701 29.6929 69.3419C29.6929 69.0844 33.0115 69.3881 34.3881 71.1889C36.8294 74.3826 38.0215 80.0335 38.4206 79.5556Z" fill="#F6F6F6"/>
<path d="M38.2036 62.0099L38.2347 61.8388C38.2607 61.6871 38.2603 61.5224 38.1825 60.7072L37.923 58.156C37.8739 57.6693 37.8346 57.2496 37.8005 56.8407L37.7736 56.5077C37.5397 53.5028 37.6524 51.795 38.4638 51.001C40.7542 48.7599 42.0197 48.8082 44.4051 49.5814L44.9051 49.744C45.9652 50.0794 46.4962 49.8199 47.2211 49.6497L47.4309 49.6021C49.1117 49.234 50.8634 49.1658 52.8776 49.3409C54.0555 49.4433 54.7845 49.5401 56.654 49.8614L58.8615 50.2481C60.243 50.4913 61.174 50.6426 62.1591 50.7769L62.3763 50.8049C63.9553 50.996 65.2403 50.8815 66.7915 50.5316C66.8235 50.5243 67.6584 50.3274 67.986 50.257L68.1838 50.2176C68.4909 50.1604 68.7509 50.1303 68.9931 50.1303L69.0312 50.109C71.3984 48.8809 73.6511 45.0445 73.4654 41.9677C73.235 38.1498 69.6082 35.7267 61.8204 35.6786L61.4414 35.6772C60.1553 35.6632 59.2154 35.4504 56.5153 34.623L55.1828 34.2114C52.8702 33.503 51.4767 33.1808 49.9844 33.0807C49.7275 33.0634 49.4757 33.0547 49.2284 33.0547C38.8825 33.0547 28.6909 41.8699 27.2883 50.109C27.0336 51.605 28.1872 58.2046 28.6044 61.4853C28.6044 61.4853 32.6235 61.5296 34.58 61.8118C34.7666 61.8388 36.3528 65.2963 37.314 65.2963C38.1825 65.2963 38.2036 62.0099 38.2036 62.0099Z" fill="#F6F6F6"/>
<path d="M44.1534 50.8823C45.5955 51.3565 46.3875 51.4912 47.4781 51.2557L47.8785 51.165C50.4645 50.5999 52.4444 50.7705 57.9765 51.7404L59.3033 51.9727C60.3283 52.1489 61.1134 52.2726 61.9397 52.3853C63.7604 52.6335 65.2309 52.5294 66.9345 52.1622L68.6731 51.7732C68.9727 51.7109 68.9359 51.7344 69.044 51.7517L69.0941 51.7579C69.3219 51.779 70.0943 51.8952 70.2759 52.4197C71.3937 55.6492 71.7182 63.3574 70.5313 69.7032C68.9196 78.3195 64.2951 84.2258 57.6858 86.0199C47.6143 88.7538 40.0426 83.5592 34.8008 70.1429L34.6395 69.7301L34.2051 69.6427L33.895 69.5783C28.9057 68.5093 27.2207 66.5918 28.9073 63.4701C29.752 61.9065 30.9092 61.4222 31.8736 61.7493C33.047 62.1472 34.5254 63.6813 36.2148 66.3602L36.2337 66.3888C36.9746 67.4607 38.0029 67.05 38.5253 65.9119C38.8512 65.2018 39.1609 64.0143 39.4731 62.3155L39.5359 61.9684C39.5888 61.6431 39.564 61.3835 39.2921 58.7585L39.1958 57.8182C39.1613 57.4712 39.1321 57.1582 39.1061 56.856L39.0933 56.7057C38.9866 55.427 38.9475 54.4083 38.9876 53.6075C39.0284 52.7938 39.159 52.274 39.2743 52.1612L39.4672 51.9755C41.1426 50.3892 42.0925 50.2306 43.8067 50.7696L44.1534 50.8823Z" fill="#F6F6F6"/>
<path fill-rule="evenodd" clip-rule="evenodd" d="M70.5311 69.7032C68.9194 78.3195 64.2948 84.2258 57.6856 86.0199C55.7622 86.542 61.3328 84.4776 64.2672 80.7663C68.2909 75.6771 70.5546 68.1406 70.9275 65.8582C72.0556 58.9534 71.718 63.3575 70.5311 69.7032Z" fill="#D1D1D1"/>
<path fill-rule="evenodd" clip-rule="evenodd" d="M38.5254 65.9119C38.8513 65.2018 39.161 64.0143 39.4732 62.3155L39.536 61.9684C39.5889 61.6431 39.5641 61.3835 39.2922 58.7585L39.1959 57.8182C39.1615 57.4712 39.1322 57.1582 39.1062 56.856L39.0935 56.7057C38.9868 55.427 38.9476 54.4083 38.9877 53.6075C39.0285 52.7938 39.1592 52.274 39.2744 52.1612L39.4673 51.9755C41.1428 50.3892 42.0926 50.2306 43.8068 50.7696L44.1535 50.8823C45.5956 51.3565 46.3876 51.4912 47.4782 51.2557L47.8786 51.165C50.4646 50.5999 52.4445 50.7705 57.9766 51.7404L59.3034 51.9727C60.3284 52.1489 61.1135 52.2726 61.9399 52.3853C63.7605 52.6335 65.231 52.5294 66.9346 52.1622L68.6732 51.7732C68.9729 51.7109 68.936 51.7344 69.0441 51.7517L69.0942 51.7579C69.322 51.779 70.0945 51.8952 70.276 52.4197C70.276 52.4197 69.5719 52.9901 69.0441 53.0289C64.4454 53.3673 61.1017 54.1698 57.5473 54.5102C51.9426 55.0468 46.9303 55.2309 44.1535 56.7057C42.8118 57.4184 41.3873 64.7662 39.599 67.2568C38.5859 68.6676 38.5254 65.9119 38.5254 65.9119Z" fill="#D1D1D1"/>
<path fill-rule="evenodd" clip-rule="evenodd" d="M80.9444 123.477C81.3861 124.627 82.0346 125.469 82.912 125.796C83.6496 126.059 84.4164 126.223 85.1995 126.331C86.8872 126.564 99.7836 127.661 105.573 126.904C111.363 126.147 111.035 126.077 113.681 125.608C114.962 125.381 116.426 125.139 117.735 124.626C118.699 124.249 119.579 123.725 120.268 122.981C120.886 122.315 121.267 121.183 121.381 119.917C121.525 118.309 121.279 116.182 121.037 115.112C120.984 114.824 120.02 115.032 120.073 115.32C120.217 116.315 120.262 118.29 120.074 119.751C119.958 120.657 119.78 121.499 119.336 121.977C118.779 122.576 118.062 122.984 117.283 123.29C116.051 123.775 114.671 124.002 113.467 124.221C110.856 124.697 108.417 125.316 97.6032 125.608C95.8496 125.656 87.0662 125.202 85.3655 124.958C84.6655 124.858 83.979 124.714 83.32 124.476C82.5506 124.216 82.146 123.262 81.7866 122.191C81.3524 120.897 80.3449 116.276 80.9444 115.283C81.1678 114.913 82.7807 114.993 83.7899 115.1C87.0231 115.443 92.9552 115.581 98.7114 115.645C105.049 115.715 120.159 115.718 120.159 115.427C120.159 115.166 120.76 115.101 121.037 115.112C121.127 115.115 120.535 114.382 117.735 114.382C113.273 114.382 106.402 114.545 99.7118 114.476C90.583 114.381 81.8578 113.545 80.4114 113.697C80.3807 113.7 80.3517 113.703 80.3242 113.704C79.2661 113.767 79.7372 120.337 80.9444 123.477Z" fill="#0A0A0A"/>
<path fill-rule="evenodd" clip-rule="evenodd" d="M83.0869 117.149C83.132 116.82 83.5137 116.101 83.6703 116.478C83.9486 117.149 83.6651 121.63 86.2903 122.096C86.731 122.174 87.89 122.341 87.89 122.711C87.89 123.081 87.7107 123.639 86.7493 123.378C85.053 122.917 84.0823 121.967 83.4877 120.46C83.0647 119.387 82.9525 118.131 83.0869 117.149Z" fill="#0A0A0A"/>
<path fill-rule="evenodd" clip-rule="evenodd" d="M24.5583 106.117L24.5591 106.125C24.5594 106.187 24.6356 106.271 24.6491 106.452C24.7066 107.226 24.3786 109.045 24.3205 109.62C24.1685 110.966 23.9029 112.649 23.8551 114.258C23.8244 115.297 23.8793 116.304 24.1747 117.158C24.789 118.996 26.2066 120.127 27.9195 120.85C29.4517 121.497 31.225 121.782 32.9261 121.986C34.1668 122.134 35.364 122.257 36.4258 122.317C36.6072 122.317 36.7545 122.465 36.7545 122.647C36.7545 122.828 36.6072 122.974 36.4258 122.974C35.3408 123.036 34.1087 123.111 32.834 123.04C31.0104 122.939 29.1199 122.574 27.4819 121.896C25.459 121.057 23.8259 119.681 23.1046 117.513C22.7904 116.534 22.7165 115.385 22.7998 114.203C22.9153 112.567 23.3131 110.873 23.5486 109.51C23.6544 108.939 23.8454 107.087 24.1404 106.368C24.2848 106.014 24.534 105.971 24.5422 105.992C24.5765 106.026 24.5819 106.078 24.5583 106.117Z" fill="#0A0A0A"/>
<path fill-rule="evenodd" clip-rule="evenodd" d="M40.9188 119.364L39.9348 119.521C39.6251 119.586 39.2726 119.711 38.9776 119.904C38.7593 120.046 38.5799 120.232 38.4584 120.448C38.4017 120.551 38.3691 120.655 38.3463 120.759C38.3034 120.956 38.3154 121.154 38.2809 121.364C38.2532 121.53 38.2435 121.694 38.2491 121.858C38.2568 122.083 38.2946 122.306 38.318 122.532C38.3695 122.889 38.3858 123.231 38.5252 123.547C38.5881 123.689 38.6728 123.815 38.7808 123.945C38.8321 124.037 38.9485 124.071 39.0408 124.019C39.1331 123.968 39.1665 123.852 39.1152 123.759C39.1152 123.759 38.4756 120.794 39.2546 120.302C40.0335 119.81 40.4656 119.874 40.6934 119.818C40.7866 119.795 40.9896 119.545 41.0012 119.488C41.0128 119.431 40.9759 119.375 40.9188 119.364Z" fill="#0A0A0A"/>
<path fill-rule="evenodd" clip-rule="evenodd" d="M40.8858 119.476L40.9936 119.699C41.0282 119.844 41.0337 120.012 41.0374 120.173C41.0408 120.315 41.0563 120.455 40.967 120.572C40.9187 120.62 40.9187 120.698 40.967 120.747C41.0153 120.795 41.0936 120.795 41.1419 120.747C41.3001 120.637 41.3969 120.482 41.4259 120.301C41.4635 120.066 41.3622 119.811 41.2742 119.605C41.245 119.54 41.1336 119.379 41.0189 119.312C40.9275 119.258 40.839 119.245 40.7695 119.3C40.721 119.332 40.7075 119.398 40.7396 119.446C40.7718 119.495 40.8373 119.508 40.8858 119.476Z" fill="#0A0A0A"/>
<path fill-rule="evenodd" clip-rule="evenodd" d="M40.7544 120.607C40.6697 120.655 40.591 120.705 40.5602 120.719C40.2616 120.855 40.0906 121.152 40.0448 121.508C39.9892 121.939 40.1474 122.44 40.2393 122.748C40.2657 122.854 40.3735 122.918 40.4797 122.892C40.5858 122.865 40.6504 122.758 40.6238 122.651C40.5536 122.335 40.4776 121.801 40.5542 121.391C40.5832 121.236 40.6075 121.09 40.727 120.997C40.727 120.997 40.8118 120.574 40.7544 120.607Z" fill="#0A0A0A"/>
<path fill-rule="evenodd" clip-rule="evenodd" d="M38.6805 121.136C38.8593 121.337 38.8415 121.645 38.6406 121.823C38.3352 122.095 38.0675 122.303 37.8331 122.447L37.7188 122.514C37.519 122.627 37.253 122.758 36.918 122.908C36.8763 122.926 36.4892 123.049 36.3482 122.939C36.2734 122.881 36.191 122.813 36.148 122.715C36.1279 122.669 36.1962 122.579 36.322 122.464C36.5315 122.273 37.0889 122.17 37.4741 121.929C38.1045 121.534 38.5901 121.034 38.6805 121.136Z" fill="#0A0A0A"/>
<path fill-rule="evenodd" clip-rule="evenodd" d="M40.4092 125.729C40.5997 125.539 40.908 125.54 41.0979 125.73C41.9304 126.565 42.1783 127.365 41.6384 128.024C41.2935 128.444 40.8026 128.812 40.1067 129.091C39.782 129.221 39.8213 129.282 38.9743 129.468C38.7116 129.526 38.4519 129.36 38.3942 129.097C38.3366 128.834 38.5028 128.575 38.7655 128.517L39.1065 128.44C39.7173 128.3 40.6422 127.703 40.8851 127.406C41.0235 127.237 40.9323 126.943 40.4083 126.418C40.2184 126.227 40.2188 125.919 40.4092 125.729Z" fill="#0A0A0A"/>
<path fill-rule="evenodd" clip-rule="evenodd" d="M52.9276 117.878C53.0411 120.115 53.0873 121.458 53.066 121.907C53.0072 123.128 52.7841 124.693 52.2441 126.056C51.853 127.043 51.2846 127.911 50.5571 128.511C50.0629 128.896 49.0175 129.648 45.9184 129.433C39.6952 129.003 40.6836 118.451 40.722 118.298C40.7605 118.144 40.9221 117.549 41.076 117.586C41.3553 117.631 40.2729 128.591 45.752 128.666C46.1773 128.672 46.5959 128.613 47.0249 128.557C47.6191 128.512 48.2442 128.378 48.8229 128.153C49.1854 128.012 49.53 127.835 49.8247 127.593C50.4292 127.125 50.8774 126.412 51.2339 125.627C51.7958 124.39 52.2046 122.972 52.3381 121.847C52.4088 121.259 52.5654 117.689 52.5654 117.689C52.6475 117.406 52.9244 117.816 52.9276 117.878Z" fill="#0A0A0A"/>
<path fill-rule="evenodd" clip-rule="evenodd" d="M46.8657 116.596L47.1444 116.598C50.3319 116.629 52.8715 117.198 52.8715 117.895C52.8715 118.612 51.6719 119.973 48.355 119.973L48.0763 119.971C43.6198 120.157 40.8599 118.592 40.8599 117.895C40.8599 117.178 43.5488 116.596 46.8657 116.596Z" fill="#0A0A0A"/>
<path fill-rule="evenodd" clip-rule="evenodd" d="M46.8652 116.921L46.5952 116.922C43.6396 116.954 41.1841 117.497 41.1841 117.895C41.1841 118.305 43.7907 119.193 46.8652 119.193L47.1353 119.192C50.0908 119.16 52.5464 118.293 52.5464 117.895C52.5464 117.484 49.9398 116.921 46.8652 116.921Z" fill="#F6F6F6"/>
<path fill-rule="evenodd" clip-rule="evenodd" d="M51.5339 74.6913C51.6826 74.899 51.8664 75.0902 52.0832 75.2574C52.3121 75.4359 52.5781 75.5471 52.8433 75.6255C53.3609 75.7639 53.8718 75.9027 54.4 75.9887C56.0264 76.254 60.1017 76.6994 60.5023 76.774C60.7725 76.8531 61.0556 76.6971 61.1338 76.4265C61.2121 76.1558 61.0559 75.8723 60.7857 75.7933C60.3783 75.6302 59.9754 75.4762 59.5547 75.3681C58.9318 75.2075 58.2919 75.1323 57.6542 75.0584C56.5674 74.9292 55.477 74.8217 54.3848 74.7543C53.9207 74.7272 53.4631 74.734 52.9991 74.7026C52.8555 74.6971 52.7112 74.6761 52.5683 74.6298C52.3238 74.5527 52.0878 74.461 51.8892 74.3262L51.3596 73.9296C51.302 73.9286 51.2546 73.9769 51.2548 74.0354C51.255 74.094 51.4935 74.6289 51.5339 74.6913Z" fill="#0A0A0A"/>
<path fill-rule="evenodd" clip-rule="evenodd" d="M56.6258 78.5755C56.9017 78.8732 57.3553 79.1222 57.8556 79.197C58.363 79.2701 58.8845 79.1465 59.2371 78.9499C59.3457 78.8956 59.3897 78.7627 59.3354 78.6541C59.2811 78.5455 59.1489 78.5025 59.0405 78.5568C58.799 78.6616 58.4764 78.6784 58.145 78.6635C58.0056 78.656 57.8651 78.6373 57.7255 78.626C57.361 78.5923 57.0139 78.5642 56.7602 78.4126C56.7152 78.377 56.6486 78.3826 56.6115 78.4276C56.5745 78.4725 56.5808 78.538 56.6258 78.5755Z" fill="#0A0A0A"/>
<path fill-rule="evenodd" clip-rule="evenodd" d="M166.917 7.32858C167.365 7.35506 167.706 7.73926 167.68 8.18671L167.59 9.7348C166.948 21.1809 166.797 30.8728 167.139 38.808L167.155 39.1621C167.532 47.5022 168.453 59.2602 170.562 77.6485C170.749 77.7799 170.88 77.9894 170.904 78.2351C170.947 78.6813 170.621 79.078 170.175 79.1212C159.721 80.1342 149.994 80.8085 140.994 81.144L139.764 81.1879C130.597 81.5012 117.32 81.6535 99.9296 81.645C99.4813 81.6447 99.1181 81.2812 99.1184 80.833C99.1186 80.3847 99.4821 80.0216 99.9304 80.0218L103.59 80.0211C119.519 80.0074 131.744 79.8491 140.262 79.5464L141.575 79.4975C150.048 79.1677 159.166 78.5386 168.929 77.6101C168.584 74.1421 165.895 46.9723 165.545 39.4892L165.533 39.2354C165.153 30.8195 165.328 20.439 166.059 8.0908C166.085 7.66125 166.44 7.32956 166.864 7.32715L166.917 7.32858ZM92.4354 8.96634C92.8797 8.90686 93.2881 9.2188 93.3476 9.66306L93.6416 11.8746C95.4126 25.2894 96.5853 35.9527 97.1598 43.8679L97.2141 44.6334C97.796 53.0413 98.1586 65.242 98.3022 81.2407C98.3063 81.6889 97.9462 82.0555 97.498 82.0596C97.0498 82.0636 96.6831 81.7035 96.6791 81.2553L96.656 78.8884C96.5039 64.5463 96.1672 53.4185 95.6463 45.509L95.5947 44.7455C95.0155 36.3773 93.7302 24.7534 91.7387 9.87845C91.6792 9.43419 91.9912 9.02582 92.4354 8.96634Z" fill="#0A0A0A"/>
<path fill-rule="evenodd" clip-rule="evenodd" d="M38.311 84.1418C38.7592 84.1386 39.1252 84.4993 39.1284 84.9476C39.1316 85.3958 38.7708 85.7617 38.3226 85.7649C29.3728 85.8287 23.2366 88.41 19.8209 93.4708C15.7725 99.469 11.9552 109.257 12.2031 121.925C12.3875 131.35 32.2093 129.854 36.9618 129.602C37.5964 129.569 38.0287 129.906 38.0239 129.957C37.9877 130.337 37.6864 130.65 37.2925 130.687C31.501 131.236 26.6328 130.67 22.7056 130.274C14.4002 129.435 10.3033 127.099 10.5822 121.839C11.2663 108.936 14.8989 98.8239 19.1248 92.5627C22.8769 87.0035 28.8705 84.2091 38.311 84.1418Z" fill="#0A0A0A"/>
<path fill-rule="evenodd" clip-rule="evenodd" d="M38.4638 51.001C37.6524 51.795 37.5397 53.5028 37.7736 56.5077L37.8005 56.8407C37.8346 57.2497 37.8739 57.6693 37.923 58.156L38.1825 60.7072C38.2603 61.5224 38.2607 61.6871 38.2347 61.8388L38.2036 62.0099C37.9816 63.2195 37.4393 64.4642 37.2346 65.0796L37.1913 65.2048L37.1668 65.1675C35.4595 62.5908 33.8936 60.7203 32.395 60.2121C30.5649 59.5915 28.9865 60.5096 27.8039 62.6985L27.7352 62.8277C25.5825 66.9485 27.9574 69.4986 33.6637 70.7926L33.7748 70.8172L33.9479 71.2459C39.4634 84.7511 47.3546 90.5062 58.1111 87.5864C65.434 85.5986 69.7634 79.1661 71.4776 70.0016C72.7136 63.394 72.3771 55.4035 71.1606 51.8888C70.7864 50.8077 70.1712 50.2277 69.2441 50.1417C68.9284 50.1124 68.5992 50.1402 68.1838 50.2176L67.986 50.2571C67.6584 50.3274 66.8235 50.5244 66.7915 50.5316C65.2403 50.8816 63.9553 50.9961 62.3763 50.8049L62.1591 50.777C61.174 50.6427 60.243 50.4913 58.8615 50.2482L56.654 49.8614C54.7845 49.5401 54.0555 49.4433 52.8776 49.3409C50.8634 49.1659 49.1117 49.234 47.4309 49.6022L47.2212 49.6498C46.4962 49.82 45.9652 50.0794 44.9051 49.744L44.4051 49.5814C42.0197 48.8083 40.7542 48.76 38.4638 51.001ZM44.1535 50.8823C45.5955 51.3565 46.3875 51.4913 47.4782 51.2557L47.8786 51.165C50.4646 50.5999 52.4444 50.7705 57.9766 51.7404L59.3034 51.9727C60.3283 52.1489 61.1134 52.2726 61.9398 52.3853C63.7605 52.6335 65.231 52.5294 66.9346 52.1622L68.6732 51.7732C68.9728 51.7109 68.9359 51.7344 69.044 51.7517L69.0942 51.7579C69.322 51.779 70.0944 51.8952 70.276 52.4197C71.3938 55.6492 71.7183 63.3575 70.5313 69.7032C68.9197 78.3195 64.2951 84.2258 57.6859 86.0199C47.6144 88.7538 40.0426 83.5592 34.8009 70.1429L34.6396 69.7302L34.2051 69.6427L33.8951 69.5783C28.9058 68.5093 27.2207 66.5918 28.9073 63.4701C29.7521 61.9065 30.9092 61.4222 31.8736 61.7493C33.0471 62.1472 34.5255 63.6813 36.2148 66.3603L36.2337 66.3888C36.9746 67.4607 38.0029 67.05 38.5253 65.9119C38.8513 65.2018 39.161 64.0143 39.4732 62.3155L39.5359 61.9684C39.5889 61.6431 39.5641 61.3835 39.2922 58.7585L39.1958 57.8182C39.1614 57.4712 39.1321 57.1582 39.1061 56.856L39.0934 56.7058C38.9867 55.427 38.9475 54.4083 38.9877 53.6075C39.0284 52.7939 39.1591 52.274 39.2744 52.1612L39.4672 51.9755C41.1427 50.3892 42.0926 50.2306 43.8068 50.7696L44.1535 50.8823Z" fill="#0A0A0A"/>
<path fill-rule="evenodd" clip-rule="evenodd" d="M49.2283 31.4315C49.5125 31.4315 49.8006 31.4415 50.0931 31.4611C51.7407 31.5717 53.2265 31.9148 55.647 32.656L57.0971 33.1034C59.6201 33.874 60.459 34.0547 61.5831 34.0547C70.2991 34.0547 74.7924 37.0113 75.0856 41.8699C75.3105 45.5967 72.707 50.0306 69.7787 51.5499C69.3809 51.7563 68.891 51.6011 68.6846 51.2032C68.4781 50.8053 68.6333 50.3155 69.0312 50.109C71.3984 48.8809 73.6511 45.0445 73.4654 41.9677C73.235 38.1498 69.6082 35.7267 61.8204 35.6787L61.4413 35.6772C60.1552 35.6633 59.2153 35.4504 56.5153 34.623L55.1828 34.2114C52.8701 33.503 51.4767 33.1808 49.9844 33.0807C49.7275 33.0634 49.4756 33.0547 49.2283 33.0547C38.8825 33.0547 28.6909 41.8699 27.2882 50.109C26.9472 52.1124 29.1318 63.269 28.6909 63.3495C28.2499 63.4299 27.8273 63.1376 27.7468 62.6967L27.6519 62.1675C26.7111 56.8347 25.6965 52.019 26.2765 49.4949C28.6246 39.2759 38.1134 31.4315 49.2283 31.4315Z" fill="#0A0A0A"/>
<path fill-rule="evenodd" clip-rule="evenodd" d="M60.7293 55.0291C61.2166 55.0291 61.4492 56.1182 61.3641 56.3976C60.9949 57.6104 61.919 64.5228 62.6035 66.3087L62.6359 66.3912C63.6294 68.8636 62.1838 70.4627 58.9092 70.9084C58.465 70.9689 58.056 70.6579 57.9955 70.2137C57.9767 70.0751 58.0983 69.708 58.4038 69.7346C60.6529 69.931 62.2847 68.002 61.8036 66.7346L61.7419 66.5773C60.9564 64.5363 60.0728 60.0802 60.0728 55.852C60.0728 55.4031 60.302 55.0291 60.7293 55.0291Z" fill="#0A0A0A"/>
<path fill-rule="evenodd" clip-rule="evenodd" d="M29.6932 69.3419C29.927 69.9096 29.7369 75.5893 32.7207 78.6686C35.0917 81.1155 37.7882 80.3134 38.421 79.5556C38.7307 79.1847 39.3092 79.5134 39.5115 79.9134C39.7138 80.3134 39.5536 80.8016 39.1537 81.004C37.1126 82.0364 34.395 81.6532 32.7207 80.2202C29.8123 77.7309 29.1777 72.2956 29.1777 70.3674C29.1777 69.6533 29.4849 68.8361 29.6932 69.3419Z" fill="#0A0A0A"/>
<path fill-rule="evenodd" clip-rule="evenodd" d="M63.4602 62.2483C63.7432 61.8223 64.1577 61.7722 64.5775 61.9465C64.9866 62.1163 65.3891 62.5545 65.5203 62.8491C65.7143 63.2871 65.7169 64.003 65.5604 64.6842C65.4007 65.3818 65.0789 66.0309 64.7306 66.3239C64.3994 66.6 64.1217 66.7116 63.8248 66.2734C62.6925 64.6017 63.3512 62.4122 63.4602 62.2483Z" fill="#0A0A0A"/>
<path fill-rule="evenodd" clip-rule="evenodd" d="M50.7887 63.8658C50.6658 63.4144 50.6739 61.0804 51.556 61.0804C52.8679 61.0804 53.0352 63.5096 52.8669 64C51.9183 66.7644 50.9117 64.3172 50.7887 63.8658Z" fill="#0A0A0A"/>
<path fill-rule="evenodd" clip-rule="evenodd" d="M62.026 38.7402C61.7687 38.3852 62.7843 38.2759 63.1541 38.5291C66.2497 40.6486 67.84 42.6754 67.8125 44.6968C67.7855 46.6821 66.1744 48.8994 63.0515 51.4573C62.7047 51.7413 62.1934 51.6905 61.9093 51.3437C61.6253 50.997 65.9676 48.208 66.1895 44.6747C66.4114 41.1414 62.5087 39.4064 62.026 38.7402Z" fill="#0A0A0A"/>
<path fill-rule="evenodd" clip-rule="evenodd" d="M66.8348 37.8818C66.7026 37.306 67.5414 37.342 67.9353 37.5559C70.4334 38.9125 71.7194 41.0155 71.7194 43.7634C71.7194 46.4551 69.8994 48.7998 67.1535 51.5154C66.8348 51.8306 66.3209 51.8277 66.0057 51.509C65.6906 51.1903 70.4379 47.8648 70.4379 43.0702C70.4379 38.2757 67.0142 38.6634 66.8348 37.8818Z" fill="#0A0A0A"/>
<ellipse cx="66.0191" cy="69.6862" rx="3.08406" ry="1.13623" fill="#DB371B"/>
<path fill-rule="evenodd" clip-rule="evenodd" d="M62.7077 55.9985C63.4414 55.7362 64.4546 55.8978 65.7777 56.4406C66.0027 56.5329 66.2215 56.6536 66.4603 56.8112L66.6262 56.9265C66.9335 57.1454 67.4569 57.5354 67.5588 57.6069C67.8911 57.84 68.1933 58.0231 68.52 58.1811C68.8317 58.3317 69.3394 58.4706 70.0329 58.5889C70.298 58.6341 70.4763 58.8856 70.4311 59.1507C70.3859 59.4158 67.3718 58.99 66.9994 58.7287L66.2327 58.168C66.0991 58.0708 65.984 57.9885 65.9236 57.9486C65.7338 57.8232 65.5685 57.7321 65.4081 57.6663C64.3278 57.2231 63.5444 57.0885 63.0853 57.2241L63.0356 57.2402C62.0769 57.0041 62.4545 56.0891 62.7077 55.9985Z" fill="#0A0A0A"/>
<path fill-rule="evenodd" clip-rule="evenodd" d="M38.6148 80.0179C38.9079 79.9061 39.2362 80.0531 39.3481 80.3462C39.6977 81.2626 39.9032 83.2779 39.9632 83.8115C40.0216 84.3306 40.0216 84.8389 39.9629 85.3356C39.926 85.6472 39.6435 85.8699 39.3319 85.833C39.0203 85.7961 38.7976 85.5136 38.8345 85.202C38.8829 84.793 38.8829 84.3721 38.8341 83.9385C38.787 83.5194 38.6049 81.5858 38.2865 80.7512C38.1747 80.4581 38.3216 80.1298 38.6148 80.0179Z" fill="#0A0A0A"/>
<path fill-rule="evenodd" clip-rule="evenodd" d="M38.8105 85.3436C39.1056 85.0062 40.0994 84.4456 39.9557 85.267C39.812 86.0883 37.7557 87.0434 37.7557 88.6239C37.7557 90.97 38.6604 93.2155 41.9144 94.154C53.5707 97.5161 57.6817 88.9562 58.0056 89.266C58.3295 89.5758 58.3409 90.0896 58.0311 90.4135C56.2002 92.3277 54.7241 93.6038 53.5707 94.2528C49.516 96.5344 45.1147 96.9864 41.3809 95.687C37.9659 94.4986 35.5828 91.1203 37.0008 87.8052C37.2309 87.2672 37.8234 86.4724 38.8105 85.3436Z" fill="#0A0A0A"/>
<path fill-rule="evenodd" clip-rule="evenodd" d="M120.399 1.12045C120.766 0.86386 121.272 0.953789 121.529 1.32131C121.785 1.68884 121.37 2.21757 121.003 2.47416C119.778 3.32881 116.829 6.12068 116.225 6.76011L115.645 7.37822C114.505 8.60539 100.931 22.721 100.605 22.4134C100.306 22.1313 113.551 7.56689 114.545 6.50248L114.582 6.46233C115.521 5.4605 116.388 4.55725 117.218 3.72082C118.04 2.89276 119.1 2.02719 120.399 1.12045Z" fill="#D1D1D1"/>
<path fill-rule="evenodd" clip-rule="evenodd" d="M120.399 13.132C120.766 12.8755 121.272 12.9654 121.529 13.3329C121.785 13.7004 121.695 14.2064 121.328 14.463C120.104 15.3176 101.011 34.5784 100.605 34.425C100.2 34.2717 102.157 31.9832 102.157 31.9832C103.407 30.6744 114.582 18.7986 114.582 18.7986C115.521 17.7967 116.389 16.8935 117.219 16.0571C118.04 15.229 119.1 14.0388 120.399 13.132Z" fill="#0A0A0A"/>
<path fill-rule="evenodd" clip-rule="evenodd" d="M138.329 3.92539C138.632 3.59548 139.146 3.57402 139.476 3.87746C139.805 4.18089 139.827 4.69431 139.524 5.02422C139.524 5.02422 102.605 46.9914 102.269 45.8235C102.084 45.1809 117.61 26.527 120.052 24.0125L120.73 23.3277C121.875 22.1386 127.545 15.6496 138.329 3.92539Z" fill="#0A0A0A"/>
<path fill-rule="evenodd" clip-rule="evenodd" d="M53.124 55.0547C53.7933 54.9712 54.9507 55.0856 56.2203 55.4846C56.6479 55.619 56.8856 56.0746 56.7512 56.5022C56.6168 56.9298 56.1612 57.1675 55.7336 57.0331C54.6567 56.6947 53.8258 56.5212 53.2626 56.5068L53.124 56.5064C52.9265 56.511 52.7823 56.5455 52.223 56.7593L51.3817 57.0881C50.5759 57.4059 49.9825 57.5928 49.3254 57.7007C48.5844 57.8225 47.4665 57.7728 45.9313 57.5641C45.4871 57.5037 44.7278 56.9767 45.2364 56.6506C45.7451 56.3244 47.8958 56.68 48.9042 56.5022C49.9126 56.3244 51.8267 55.2165 53.124 55.0547Z" fill="#0A0A0A"/>
<path fill-rule="evenodd" clip-rule="evenodd" d="M18.4391 110.656C22.094 110.592 23.6514 111.609 23.3152 111.938C23.3152 111.938 19.4327 111.642 18.4391 111.609C17.3888 111.574 12.5809 111.501 12.4485 111.073C12.3982 110.91 12.4017 110.744 12.4488 110.592C12.4981 110.434 13.443 110.531 15.077 110.605C15.9932 110.646 17.126 110.679 18.4391 110.656Z" fill="#0A0A0A"/>
<path fill-rule="evenodd" clip-rule="evenodd" d="M24.2171 130.291C24.2171 130.291 23.8883 145.786 26.0878 147.049C26.3916 147.223 26.3584 147.896 26.0244 148.195C25.6904 148.494 25.1774 148.465 24.8784 148.132C22.8573 145.874 22.3288 139.501 23.1277 130.122C23.1643 129.693 24.2551 129.845 24.2171 130.291Z" fill="#0A0A0A"/>
<path fill-rule="evenodd" clip-rule="evenodd" d="M75.1611 139.112L75.1173 139.114L72.5272 139.354C56.3397 140.868 46.223 142.361 38.2729 143.834L37.5259 143.975C33.6899 144.709 30.5404 145.44 28.7101 146.178C26.4209 147.101 24.3611 148.201 25.0917 149.573C26.365 151.965 29.0444 152.902 34.9142 153.552L35.5403 153.618C40.0779 154.081 44.9547 154.194 57.3178 154.256L61.5423 154.281C76.6128 154.381 85.328 154.923 96.6139 155.615L97.7642 155.686C118.547 156.999 135.136 156.788 147.532 155.334L147.906 155.289C157.921 154.086 164.678 152.095 167.617 149.836C169.347 148.506 169.612 147.173 169.659 145.94C169.702 144.832 167.159 143.158 165.706 142.608C161.659 141.076 160.338 140.52 152.557 139.735C137.188 138.186 111.613 137.762 75.1611 139.112ZM152.719 141.026L153.229 141.078C160.483 141.837 165.245 142.932 167.441 144.308L167.578 144.396C169.265 145.518 169.052 146.685 166.628 148.549C163.977 150.586 157.461 152.506 147.712 153.678C135.507 155.145 119.099 155.381 98.4922 154.106L96.3319 153.971C84.4353 153.25 75.3078 153.055 58.4149 152.964L53.7517 152.937C43.6944 152.866 39.4197 152.728 35.2931 152.285L34.9007 152.242C29.7273 151.65 26.8681 150.569 25.9103 148.874L25.8752 148.811C25.857 148.776 25.8569 148.777 25.9959 148.636C26.2741 148.354 26.8448 148.026 27.6937 147.683L27.9137 147.597C29.7536 146.889 32.6619 146.163 36.6207 145.43L37.3706 145.293C45.2742 143.874 57.0607 142.43 72.7223 140.966L75.2411 140.733L77.3914 140.655C112.633 139.392 137.749 139.516 152.719 141.026Z" fill="#0A0A0A"/>
<path d="M115.794 125.209C115.498 136.023 114.651 143.226 113.21 145.746C111.992 147.879 107.9 148.603 102.713 148.252L100.846 148.117C98.3096 147.927 96.8951 147.788 95.5316 147.577L95.3459 147.548C93.1517 147.198 91.7041 146.713 90.8925 145.926C87.898 143.023 86.3105 136.59 86.0072 126.57C85.9936 126.122 87.1816 126.534 87.6296 126.521C87.7227 126.518 93.0808 127.164 100.456 126.821C104.83 126.617 115.794 125.209 115.794 125.209Z" fill="#F6F6F6"/>
<path fill-rule="evenodd" clip-rule="evenodd" d="M86.9231 126.447C87.2198 137.261 89.769 143.546 91.2095 146.066C92.4283 148.199 96.5202 148.923 101.707 148.572L103.574 148.436C106.11 148.247 96.8057 145.475 93.5929 141.965C89.9896 138.029 86.9231 126.447 86.9231 126.447Z" fill="#D1D1D1"/>
<path fill-rule="evenodd" clip-rule="evenodd" d="M89.1165 129.797C89.1772 129.352 89.7247 128.593 90.0306 129.102C90.3365 129.612 90.4735 130.849 91.1097 132.428L92.4592 135.045C92.5786 135.341 92.6871 135.615 92.789 135.88L92.8495 136.038C93.4586 137.636 93.832 138.572 93.9648 139.636C94.0204 140.081 93.7048 140.486 93.26 140.542C92.8153 140.598 92.4097 140.282 92.3541 139.837C92.2412 138.932 92.2238 137.778 91.6574 136.291L91.5386 135.983C91.4572 135.774 91.371 135.557 91.2778 135.326L90.3406 133.048C90.1782 132.649 90.0531 132.332 89.9428 132.039L89.8544 131.8C89.5173 130.872 89.0515 130.272 89.1165 129.797Z" fill="#0A0A0A"/>
<path fill-rule="evenodd" clip-rule="evenodd" d="M67.7485 78.8596C67.2489 79.2393 67.8593 79.7749 68.0547 80.3587C68.0992 80.4918 68.156 80.6289 68.2308 80.7894L68.3224 80.9797L68.5293 81.3921L68.6152 81.5671C68.7074 81.7585 68.7727 81.9091 68.8248 82.0524C68.9858 82.4954 68.9706 82.6948 68.8193 82.8298C67.9668 83.5907 67.0613 84.0998 65.3259 84.8684L64.3677 85.2879C61.4787 86.5644 59.5511 87.4112 58.4646 89.139C57.0308 91.4191 57.4132 94.687 58.4131 99.446L58.4601 99.6668C58.6518 100.554 58.2837 102.173 58.0189 104.628L57.9996 104.804C57.8913 105.785 57.7515 106.884 57.5602 108.278L56.7978 113.687C56.5097 115.756 56.2955 117.402 56.1099 119.014L56.0396 119.636C55.4814 124.675 55.3205 128.638 55.6438 131.857C55.9242 134.649 57.5594 138.643 59.4889 140.551C62.3239 143.355 65.1416 142.027 67.691 136.229C68.8304 133.638 69.5348 131.205 69.8715 128.732C70.3216 125.426 70.1369 122.056 69.3522 117.509L69.2708 117.047C68.7342 114.1 66.3895 103.24 66.1096 101.862L66.0192 101.424L65.4234 98.6476C65.3852 98.4664 65.3495 98.2951 65.315 98.1267L65.2044 97.5768C64.7113 95.0709 64.5401 93.4078 64.7259 92.3314C64.7434 92.2299 64.8293 92.0807 65.0047 91.8913C65.2778 91.5963 65.7116 91.2634 66.3503 90.8518L66.6347 90.6726C67.2326 90.3042 68.6557 89.4572 68.6657 89.4511L68.9716 89.2638C71.9767 87.4042 73.39 85.9462 73.39 83.8826C73.39 81.8324 72.5249 80.2657 71.1206 79.3306C69.9532 78.5532 68.4829 78.3016 67.7485 78.8596ZM69.3856 80.7747L69.1065 80.2135L69.0752 80.2074C69.4384 80.2696 69.8472 80.4327 70.221 80.6817C71.1796 81.32 71.7668 82.3834 71.7668 83.8826C71.7668 85.1651 70.6342 86.3252 68.1053 87.8909L67.6632 88.159C67.2306 88.4169 66.0467 89.124 65.637 89.3815L65.6029 89.4031C64.7878 89.9202 64.2214 90.3481 63.8136 90.7886C63.4427 91.1892 63.2044 91.603 63.1264 92.0553C62.8857 93.4497 63.096 95.3488 63.6851 98.2575L63.8348 98.9813L64.3808 101.521L64.6871 102.99C65.3134 105.954 67.2456 114.949 67.6883 117.417L67.7028 117.499C68.5035 122.043 68.6967 125.329 68.2631 128.513C67.9474 130.832 67.2852 133.119 66.2051 135.576C65.039 138.228 63.867 139.713 62.7888 140.169C61.9824 140.51 61.1743 140.256 60.3057 139.397C58.6711 137.78 57.1795 134.137 56.9342 131.694C56.6246 128.612 56.7819 124.747 57.3289 119.81L57.3978 119.2C57.5897 117.533 57.813 115.826 58.1188 113.639L58.7844 108.928L58.9273 107.883C59.0697 106.826 59.181 105.94 59.2716 105.133L59.3288 104.608C59.5873 102.151 59.6298 100.491 59.414 99.4042L59.3974 99.3237C58.4239 94.8211 58.3207 91.9008 59.514 90.0031C60.3591 88.6592 61.7386 87.9461 64.2376 86.8333L65.3511 86.345C67.2253 85.5143 68.2408 84.9423 69.2509 84.0409C69.9974 83.3745 70.0642 82.4971 69.7011 81.498C69.6187 81.2712 69.5219 81.0527 69.3856 80.7747Z" fill="#0A0A0A"/>
<path d="M69.3856 80.7747L69.1065 80.2135L69.0752 80.2074C69.4384 80.2696 69.8472 80.4327 70.2211 80.6817C71.1797 81.32 71.7668 82.3834 71.7668 83.8826C71.7668 85.1651 70.6343 86.3252 68.1054 87.8909L67.6633 88.159C67.2307 88.4169 66.0468 89.124 65.637 89.3815L65.6029 89.4031C64.7879 89.9202 64.2214 90.3481 63.8136 90.7886C63.4427 91.1892 63.2045 91.603 63.1264 92.0553C62.8858 93.4497 63.0961 95.3488 63.6851 98.2575L63.8349 98.9813L64.3808 101.521L64.6872 102.99C65.3135 105.954 67.2456 114.949 67.6883 117.417L67.7028 117.499C68.5036 122.043 68.6967 125.329 68.2632 128.513C67.9475 130.832 67.2852 133.119 66.2052 135.576C65.0391 138.228 63.867 139.713 62.7888 140.169C61.9825 140.51 61.1744 140.256 60.3058 139.397C58.6711 137.78 57.1796 134.137 56.9342 131.694C56.6247 128.612 56.7819 124.747 57.3289 119.81L57.3979 119.2C57.5898 117.533 57.8131 115.826 58.1188 113.639L58.7845 108.928L58.9274 107.883C59.0698 106.826 59.1811 105.94 59.2717 105.133L59.3288 104.608C59.5874 102.151 59.6299 100.491 59.4141 99.4042L59.3974 99.3237C58.4239 94.8211 58.3207 91.9008 59.5141 90.0031C60.3592 88.6592 61.7387 87.9461 64.2376 86.8333L65.3511 86.3449C67.2254 85.5143 68.2409 84.9423 69.2509 84.0409C69.9975 83.3745 70.0642 82.4971 69.7012 81.498C69.6188 81.2712 69.522 81.0527 69.3856 80.7747Z" fill="#F6F6F6"/>
<path fill-rule="evenodd" clip-rule="evenodd" d="M64.1373 91.6592C64.3591 91.2697 64.8547 91.1338 65.2441 91.3556C69.9293 94.024 72.6139 97.2364 73.2177 100.995C73.7992 104.615 70.0088 123.454 69.5707 123.359C69.1327 123.264 68.8545 122.832 68.9494 122.394L69.1544 121.44C71.3217 111.263 72.137 104.502 71.6151 101.252C71.0992 98.041 68.7345 95.2115 64.4408 92.7661C64.0514 92.5443 63.9154 92.0487 64.1373 91.6592Z" fill="#0A0A0A"/>
<path fill-rule="evenodd" clip-rule="evenodd" d="M66.0658 80.802C66.4429 80.5597 66.945 80.669 67.1873 81.0461C67.6046 81.6958 67.8547 82.2247 67.9328 82.6764C68.0097 83.1214 67.9579 83.7183 67.7949 84.5127C67.7047 84.9518 67.2757 85.2347 66.8367 85.1445C66.6311 85.1024 66.4598 84.9859 66.345 84.829C66.2145 84.6506 66.9826 84.1863 66.9826 82.953C66.9826 81.7196 65.6886 81.0443 66.0658 80.802Z" fill="#0A0A0A"/>
<path fill-rule="evenodd" clip-rule="evenodd" d="M65.7694 82.0529C65.966 81.8889 66.1389 82.5076 66.1007 82.8127C66.0429 83.2746 66.0429 84.9337 65.3903 85.7174C65.1316 86.028 64.7089 86.2888 64.3057 86.093C64.1274 86.0064 64.6833 85.2319 65.0209 84.3564C65.2655 83.7222 65.4563 83.0429 65.5858 82.5874C65.6818 82.2494 65.5659 82.2228 65.7694 82.0529Z" fill="#0A0A0A"/>
<path fill-rule="evenodd" clip-rule="evenodd" d="M115.003 124.34C115.451 124.351 115.805 124.723 115.794 125.172L115.777 125.839C115.48 136.653 114.651 143.226 113.21 145.746C111.992 147.879 107.9 148.603 102.713 148.252L100.846 148.116C98.3097 147.927 96.8952 147.788 95.5317 147.577L95.3459 147.548C93.1518 147.198 91.7042 146.713 90.8926 145.926C87.898 143.023 86.3105 136.59 86.0072 126.57C85.9937 126.122 86.3459 125.748 86.7939 125.734C87.2419 125.721 87.6161 126.073 87.6297 126.521L87.6486 127.094C87.9816 136.387 89.4781 142.294 92.0225 144.761L92.0836 144.818C93.021 145.648 95.3449 146.059 100.736 146.479L102.651 146.62L102.984 146.643C107.46 146.923 111.036 146.28 111.801 144.941C113.08 142.703 113.898 136.033 114.171 125.131C114.183 124.683 114.555 124.329 115.003 124.34Z" fill="#0A0A0A"/>
<path fill-rule="evenodd" clip-rule="evenodd" d="M85.5484 94.2252C85.7037 93.8047 88.2944 94.4479 88.9824 94.851C89.2349 94.9989 95.0119 97.708 96.6755 98.7502C98.7864 100.073 100.271 105.771 99.7698 112.166C99.6961 113.108 99.1282 114.146 98.0995 115.329C97.8053 115.667 97.2927 115.703 96.9545 115.409C96.6163 115.114 96.5806 114.602 96.8747 114.264C97.6961 113.319 98.1107 112.562 98.1516 112.04L98.1771 111.692C98.5656 106.012 97.5632 100.697 96.1969 99.8406L95.9314 99.677C94.6397 98.8946 93.8508 98.6374 92.2708 98.3438C92.2708 98.3438 89.8067 96.3576 88.8345 95.8024C86.6789 94.5714 85.4771 94.4184 85.5484 94.2252Z" fill="#0A0A0A"/>
<path fill-rule="evenodd" clip-rule="evenodd" d="M107.37 87.5182C107.689 87.8341 100.964 93.6033 100.605 93.9269C99.505 94.9191 98.823 97.1715 99.1023 100.09L99.1184 100.251C99.1754 100.797 99.368 103 99.3759 103.31L99.3972 103.763C99.4071 103.922 99.4217 104.09 99.4515 104.378L99.6095 105.833C99.8745 108.243 99.9447 109.93 99.7696 112.166C99.6959 113.108 99.128 114.146 98.0993 115.329C97.8051 115.667 97.2925 115.703 96.9543 115.409C96.6161 115.114 98.72 112.258 98.7609 111.737C98.92 109.703 97.825 104.43 97.825 104.43C97.7785 103.968 97.7725 103.818 97.756 103.434C97.7349 102.941 97.7821 102.554 97.9248 101.852L98.0368 101.311C98.1518 100.736 98.1837 100.446 98.1578 100.143L98.1533 100.095C97.9604 98.2497 98.069 96.7549 98.4386 95.5514C98.771 94.4689 99.3147 93.622 100.04 92.9675C100.359 92.6804 100.683 92.4538 101.069 92.227L101.527 91.9664C101.583 91.933 101.62 91.9096 101.643 91.8927L101.71 91.842C102.344 91.35 107.052 87.2024 107.37 87.5182Z" fill="#0A0A0A"/>
<path fill-rule="evenodd" clip-rule="evenodd" d="M114.897 99.7308C115.007 100.165 104.182 103.789 102.743 105.023C100.772 106.712 99.7191 109.165 100.021 111.357L100.039 111.478C100.235 112.696 99.7295 113.972 98.009 115.418C97.6659 115.706 97.1539 115.662 96.8656 115.318C96.5772 114.975 96.6216 114.463 96.9648 114.175C98.285 113.066 98.8382 112.216 98.7609 111.737C98.3076 108.927 99.5943 105.862 102.011 103.79C103.763 102.289 114.787 99.2962 114.897 99.7308Z" fill="#0A0A0A"/>
<path fill-rule="evenodd" clip-rule="evenodd" d="M81.768 92.0343C85.3473 91.2353 88.4533 91.2353 91.0813 92.0513C93.9001 92.9267 95.3727 94.9121 95.3727 97.8427C95.3727 97.9996 95.3282 98.146 95.2511 98.2702L95.2149 98.3231L95.242 98.364C95.2863 98.4359 95.3201 98.5157 95.3405 98.6017L95.3512 98.654C95.4266 99.0959 95.1295 99.5152 94.6876 99.5905L94.2705 99.6603C90.0075 100.358 87.2174 100.349 85.7699 99.5496C84.2993 98.7373 82.8141 96.6199 81.209 93.1687C80.9904 92.6988 81.2623 92.1472 81.768 92.0343ZM90.5999 93.6015C88.5385 92.9614 86.0929 92.8869 83.2601 93.3899L83.1271 93.4139L83.1562 93.4723C84.4096 95.9865 85.5461 97.5338 86.4956 98.095L86.5547 98.1288C87.5095 98.6561 89.7843 98.6937 93.2728 98.1734L93.7891 98.0936L93.7763 98.0502C93.7632 98.0005 93.7547 97.949 93.7512 97.896L93.7495 97.8427C93.7495 95.6253 92.7418 94.2666 90.5999 93.6015Z" fill="#0A0A0A"/>
<path fill-rule="evenodd" clip-rule="evenodd" d="M109.785 83.5746C110.198 83.5818 110.54 83.8977 110.579 84.3088C110.865 87.2949 110.491 89.5634 109.405 91.1074C108.232 92.7731 105.967 93.2987 102.713 92.8139C102.287 92.7505 101.988 92.3674 102.024 91.9446L102.027 91.917L101.986 91.9059C101.804 91.8485 101.643 91.7277 101.537 91.5548L101.51 91.5064C100.388 89.3473 100.911 87.3405 102.972 85.7377C104.839 84.2862 107.058 83.5642 109.599 83.5727L109.785 83.5746ZM109.027 85.3353L109.02 85.21L109.017 85.2101C107.077 85.303 105.402 85.9062 103.969 87.0207C102.506 88.1585 102.202 89.3207 102.95 90.7592C103.019 90.8917 103.048 91.0345 103.041 91.1737L103.037 91.222L103.102 91.2317C105.676 91.5926 107.289 91.221 108.035 90.2326L108.077 90.1749C108.809 89.1355 109.138 87.5238 109.027 85.3353Z" fill="#0A0A0A"/>
<path d="M41.3347 121.16C42.2988 121.193 42.661 122.272 42.0994 123.357C41.7107 124.108 40.7605 124.898 39.7789 125.362C39.2185 125.627 38.5689 125.662 37.8461 125.48C37.5853 125.414 37.4272 125.15 37.4929 124.889C37.5586 124.628 37.8233 124.47 38.0841 124.536C38.6005 124.666 38.1988 123.95 38.1692 123.682C38.1397 123.415 38.3324 123.174 38.5997 123.145C39.0895 123.091 39.3455 122.837 39.5941 122.667C39.6638 122.619 39.7547 122.524 39.8824 122.364L40.0271 122.177L40.0771 122.111C40.6262 121.382 40.8414 121.16 41.2845 121.159L41.3347 121.16Z" fill="#F6F6F6"/>
<path fill-rule="evenodd" clip-rule="evenodd" d="M41.3347 121.16C42.2988 121.193 42.661 122.272 42.0994 123.357C41.7107 124.108 40.7605 124.898 39.7789 125.362C39.2185 125.627 38.5689 125.662 37.8461 125.48C37.5853 125.414 37.4272 125.15 37.4929 124.889C37.5586 124.628 37.8233 124.47 38.0841 124.536C38.6005 124.666 39.0214 124.643 39.3624 124.482C40.1676 124.101 40.9576 123.445 41.2345 122.91C41.3941 122.601 41.4283 122.36 41.3799 122.216C41.3694 122.184 41.3582 122.164 41.3455 122.152L41.3328 122.142L41.3158 122.155C41.3018 122.166 41.2859 122.18 41.2684 122.196L41.2411 122.222C41.1598 122.304 41.0856 122.393 40.9413 122.583L40.7467 122.84C40.5083 123.152 40.342 123.335 40.1442 123.471C39.7489 123.741 39.3436 124.042 38.7068 124.113C38.4395 124.142 38.1988 123.95 38.1692 123.682C38.1397 123.415 38.3324 123.174 38.5997 123.145C39.0895 123.091 39.3455 122.837 39.5941 122.667C39.6638 122.619 39.7547 122.524 39.8824 122.364L40.0271 122.177L40.0771 122.111C40.6262 121.382 40.8414 121.16 41.2845 121.159L41.3347 121.16Z" fill="#0A0A0A"/>
<path fill-rule="evenodd" clip-rule="evenodd" d="M41.6834 123.331C42.2752 123.351 42.4924 123.87 42.4448 124.478C42.4092 124.931 42.2262 125.416 41.9486 125.726C41.5972 126.117 41.1066 126.454 40.4422 126.801L40.307 126.87C40.0671 126.992 39.9013 127.07 39.4625 127.274C38.9243 127.523 38.2072 127.612 37.3054 127.557C37.037 127.54 36.8327 127.309 36.8491 127.041C36.8655 126.773 37.0964 126.568 37.3648 126.585C38.1196 126.631 38.6844 126.561 39.0535 126.39L39.511 126.176C39.6445 126.113 39.746 126.063 39.8665 126.002C40.5013 125.68 40.9481 125.382 41.2237 125.075C41.3369 124.949 41.4361 124.701 41.4671 124.465L41.4738 124.402L41.4744 124.388L41.4366 124.411C41.3427 124.504 40.161 125.214 40.0332 125.24C38.3705 125.571 38.6736 125.438 38.0368 125.509C37.7695 125.538 37.5288 125.346 37.4993 125.078C37.4697 124.811 37.6624 124.57 37.9297 124.541C38.1058 124.521 38.4368 124.836 38.8035 124.807C39.1169 124.782 39.8931 124.383 39.8931 124.383L40.2276 124.104C40.3104 124.035 40.3821 123.976 40.4511 123.922L40.6154 123.795C41.039 123.476 41.3522 123.32 41.6834 123.331Z" fill="#0A0A0A"/>
<path fill-rule="evenodd" clip-rule="evenodd" d="M39.981 128.073C40.6413 127.832 41.1832 128.423 41.4372 128.988C41.7127 129.601 41.3746 130.141 40.7348 130.536C40.3011 130.805 39.7122 131.009 39.2726 131.058C38.653 131.128 37.9164 130.921 37.0468 130.458C36.8094 130.332 36.7194 130.037 36.8458 129.8C36.9722 129.562 37.2671 129.472 37.5044 129.599C38.2162 129.978 38.7745 130.135 39.1634 130.091C39.4597 130.057 39.9112 129.901 40.2227 129.708C40.3777 129.612 41.0397 128.988 40.3144 128.988C40.0407 128.988 39.7283 128.836 39.6902 128.697C39.652 128.558 39.7283 128.165 39.981 128.073Z" fill="#0A0A0A"/>
<path fill-rule="evenodd" clip-rule="evenodd" d="M49.2532 117.785C49.3588 117.732 49.5179 117.824 49.5313 117.937L49.5317 117.961L49.4939 118.344L50.6178 117.785C50.6761 117.753 50.7695 117.774 50.8398 117.829L50.865 117.851C50.9291 117.915 50.9402 117.991 50.8947 118.032L50.8748 118.046L49.3832 118.757C49.2624 118.809 49.0947 118.716 49.0907 118.605L49.0922 118.58L49.0372 118.344L47.8945 118.756C47.7768 118.805 47.6318 118.731 47.6237 118.626L47.6243 118.602L47.5999 118.31L46.1999 118.757C46.0682 118.806 45.9341 118.723 45.9547 118.615L45.9614 118.591L45.9807 118.31L44.8578 118.708C44.7281 118.758 44.6042 118.688 44.6228 118.585L44.6296 118.56L44.6936 118.271L43.6588 118.565C43.5366 118.608 43.4318 118.551 43.4455 118.458L43.4515 118.434L43.5626 118.112L42.7332 118.31C42.6434 118.331 42.5721 118.299 42.5619 118.238L42.561 118.214C42.567 118.146 42.6359 118.074 42.7204 118.042L42.7526 118.032L43.793 117.776C43.8972 117.75 43.9763 117.807 43.9656 117.891L43.9604 117.915L43.871 118.204L44.9885 117.784C45.1051 117.738 45.2132 117.808 45.199 117.91L45.1935 117.934L45.0663 118.321L46.3083 117.786C46.4264 117.732 46.5553 117.816 46.5421 117.926L46.5369 117.95L46.4041 118.362L47.7813 117.784C47.8861 117.737 48.0185 117.811 48.0318 117.915L48.0326 117.94L48.0028 118.369L49.2532 117.785Z" fill="#DB371B"/>
<ellipse cx="51.4262" cy="68.713" rx="3.35702" ry="0.943209" transform="rotate(8.98977 51.4262 68.713)" fill="#DB371B"/>
<path fill-rule="evenodd" clip-rule="evenodd" d="M24.8198 90.3053L25.4057 91.5367L26.7201 91.8998L25.73 92.8375L25.7909 94.1998L24.5931 93.5479L23.3163 94.0267L23.5661 92.6862L22.7162 91.6198L24.0683 91.4432L24.8198 90.3053Z" fill="#0A0A0A"/>
<path fill-rule="evenodd" clip-rule="evenodd" d="M34.3064 88.0317L34.7298 88.9725L35.6859 89.2469L34.9625 89.967L35.0033 91.0093L34.1329 90.5136L33.202 90.8834L33.3874 89.8569L32.7713 89.0431L33.7563 88.9044L34.3064 88.0317Z" fill="#0A0A0A"/>
<path fill-rule="evenodd" clip-rule="evenodd" d="M40.7991 107.51L41.2225 108.451L42.1786 108.725L41.4552 109.445L41.496 110.488L40.6256 109.992L39.6946 110.362L39.88 109.335L39.2639 108.521L40.249 108.383L40.7991 107.51Z" fill="#0A0A0A"/>
<path fill-rule="evenodd" clip-rule="evenodd" d="M69.0428 101.017L69.4661 101.958L70.4222 102.232L69.6989 102.952L69.7396 103.995L68.8692 103.499L67.9383 103.869L68.1237 102.842L67.5076 102.029L68.4926 101.89L69.0428 101.017Z" fill="#0A0A0A"/>
<path fill-rule="evenodd" clip-rule="evenodd" d="M27.1643 132.182L27.5877 133.123L28.5438 133.398L27.8204 134.118L27.8612 135.16L26.9908 134.664L26.0599 135.034L26.2453 134.008L25.6292 133.194L26.6142 133.055L27.1643 132.182Z" fill="#0A0A0A"/>
<path fill-rule="evenodd" clip-rule="evenodd" d="M26.8622 140.624L27.3796 141.774L28.5482 142.109L27.6641 142.989L27.7139 144.263L26.6501 143.657L25.5123 144.109L25.7389 142.855L24.9859 141.86L26.1898 141.69L26.8622 140.624Z" fill="#0A0A0A"/>
<path fill-rule="evenodd" clip-rule="evenodd" d="M36.6015 135.754L37.1189 136.904L38.2875 137.24L37.4034 138.12L37.4532 139.394L36.3894 138.788L35.2516 139.24L35.4782 137.985L34.7252 136.99L35.9291 136.821L36.6015 135.754Z" fill="#0A0A0A"/>
<path fill-rule="evenodd" clip-rule="evenodd" d="M49.5873 131.859L50.1047 133.009L51.2733 133.344L50.3892 134.224L50.439 135.498L49.3752 134.892L48.2374 135.344L48.464 134.089L47.711 133.095L48.9149 132.925L49.5873 131.859Z" fill="#0A0A0A"/>
<path fill-rule="evenodd" clip-rule="evenodd" d="M30.3389 104.589L30.9247 105.821L32.2392 106.184L31.2491 107.122L31.3099 108.484L30.1121 107.832L28.8353 108.311L29.0852 106.97L28.2352 105.904L29.5874 105.727L30.3389 104.589Z" fill="#0A0A0A"/>
<path fill-rule="evenodd" clip-rule="evenodd" d="M31.9619 95.4995L32.5478 96.7309L33.8622 97.094L32.8721 98.0317L32.933 99.394L31.7352 98.7421L30.4584 99.221L30.7082 97.8804L29.8583 96.814L31.2104 96.6374L31.9619 95.4995Z" fill="#0A0A0A"/>
<path fill-rule="evenodd" clip-rule="evenodd" d="M46.5708 101.018L47.1567 102.25L48.4711 102.613L47.481 103.55L47.5418 104.913L46.3441 104.261L45.0673 104.74L45.3171 103.399L44.4671 102.333L45.8193 102.156L46.5708 101.018Z" fill="#0A0A0A"/>
<path fill-rule="evenodd" clip-rule="evenodd" d="M55.0113 96.7981L55.5971 98.0295L56.9115 98.3926L55.9214 99.3303L55.9823 100.693L54.7845 100.041L53.5077 100.52L53.7575 99.179L52.9076 98.1126L54.2597 97.936L55.0113 96.7981Z" fill="#0A0A0A"/>
<path fill-rule="evenodd" clip-rule="evenodd" d="M52.4141 109.784L52.9999 111.015L54.3144 111.378L53.3242 112.316L53.3851 113.678L52.1873 113.026L50.9105 113.505L51.1604 112.164L50.3104 111.098L51.6626 110.921L52.4141 109.784Z" fill="#0A0A0A"/>
<path fill-rule="evenodd" clip-rule="evenodd" d="M30.9878 114.004L31.5737 115.235L32.8881 115.598L31.898 116.536L31.9588 117.898L30.7611 117.247L29.4842 117.725L29.7341 116.385L28.8841 115.318L30.2363 115.142L30.9878 114.004Z" fill="#0A0A0A"/>
<path fill-rule="evenodd" clip-rule="evenodd" d="M22.6308 99.719L23.1552 100.768L24.3254 101.081L23.4473 101.875L23.5051 103.034L22.4379 102.477L21.3035 102.881L21.5221 101.741L20.7631 100.831L21.9654 100.685L22.6308 99.719Z" fill="#0A0A0A"/>
<path fill-rule="evenodd" clip-rule="evenodd" d="M16.7875 106.536L17.312 107.585L18.4822 107.898L17.604 108.693L17.6619 109.852L16.5947 109.294L15.4602 109.698L15.6788 108.558L14.9198 107.649L16.1221 107.502L16.7875 106.536Z" fill="#0A0A0A"/>
<path fill-rule="evenodd" clip-rule="evenodd" d="M59.3634 89.5161C59.3793 89.9639 59 90.339 58.5518 90.3277C56.3128 90.2709 55.9568 86.4208 56.1716 86.4052C56.4688 86.3837 56.9768 88.2126 57.9765 88.8787C58.7388 89.3867 59.3198 88.2818 59.3634 89.5161Z" fill="#0A0A0A"/>
<path fill-rule="evenodd" clip-rule="evenodd" d="M108.493 97.493C113.771 95.7322 118.314 95.6666 122.094 97.3323C122.79 97.6391 122.72 98.6493 121.987 98.856L121.709 98.9365C120.621 99.2583 119.863 99.5751 119.455 99.8628L119.373 99.9235L119.339 99.9492C119.031 100.19 118.702 100.504 118.27 100.962L116.964 102.379C116.903 102.445 116.85 102.501 116.809 102.544C115.053 104.389 113.528 105.467 111.558 105.938C108.861 106.582 105.999 106.269 102.991 105.015C102.75 104.915 102.583 104.711 102.52 104.477L102.518 104.47L102.475 104.452C102.185 104.311 101.998 104.005 102.019 103.67L102.024 103.616C102.387 100.829 104.596 98.7927 108.493 97.493ZM119.116 98.0643C116.218 97.4327 112.853 97.7498 109.006 99.0328C105.858 100.083 104.134 101.553 103.705 103.431L103.68 103.544L103.804 103.594C106.374 104.631 108.773 104.894 111.017 104.396L111.181 104.359C112.735 103.988 113.998 103.116 115.496 101.568L115.703 101.351C116.056 100.975 116.887 100.064 116.99 99.9546C117.522 99.3843 117.929 98.991 118.341 98.6698L118.43 98.6014C118.638 98.4446 118.892 98.2929 119.191 98.1451L119.281 98.1014L119.116 98.0643Z" fill="#0A0A0A"/>
<path fill-rule="evenodd" clip-rule="evenodd" d="M120.399 0.146572C120.766 -0.110017 121.272 -0.0200875 121.529 0.347436C121.785 0.714959 121.37 1.24369 121.003 1.50028C119.778 2.35494 116.829 5.1468 116.225 5.78623L115.645 6.40435C114.505 7.63152 100.931 21.7472 100.605 21.4396C100.306 21.1575 113.551 6.59301 114.545 5.52861L114.582 5.48845C115.521 4.48662 116.388 3.58337 117.218 2.74694C118.04 1.91888 119.1 1.05332 120.399 0.146572Z" fill="#0A0A0A"/>
<path fill-rule="evenodd" clip-rule="evenodd" d="M118.756 54.0632C117.269 55.4099 117.573 59.907 119.508 67.8216C119.599 68.1927 120.066 68.3142 120.326 68.0344L120.649 67.6845C123.943 64.0943 125.834 61.2851 126.322 59.2119C126.623 57.9377 126.318 57.0947 125.303 57.0947L125.239 57.0961C124.631 57.1207 123.796 57.49 122.688 58.2006L122.538 58.298L122.536 58.2856C122.157 56.4745 121.726 55.202 121.223 54.4504C120.544 53.4346 119.624 53.2774 118.756 54.0632ZM120.425 54.9838C120.901 55.6961 121.346 57.1068 121.736 59.1901C121.8 59.533 122.197 59.6951 122.483 59.4952C123.859 58.5328 124.828 58.0547 125.303 58.0547C125.504 58.0547 125.567 58.2299 125.388 58.9917L125.365 59.083C124.911 60.8585 123.253 63.3561 120.393 66.5391L120.231 66.7188L120.132 66.2985C118.582 59.6125 118.382 55.6971 119.401 54.7748C119.817 54.3971 120.061 54.4387 120.425 54.9838Z" fill="#DB371B"/>
<path fill-rule="evenodd" clip-rule="evenodd" d="M109.602 64.8701C109.292 65.3253 109.051 66.0408 108.864 67.0332L108.839 67.1668L108.773 67.1257L108.553 66.9921C107.798 66.5452 107.231 66.3145 106.81 66.2972C105.907 66.26 105.678 66.9967 105.988 68.0237C106.497 69.6815 108.229 71.7727 110.99 74.0453C111.268 74.2747 111.691 74.1261 111.764 73.7729L111.839 73.4119C112.845 68.4712 112.842 65.7165 111.681 64.6979L111.638 64.6619C110.932 64.0528 110.174 64.0862 109.644 64.8097L109.602 64.8701ZM111.051 65.4228C111.785 66.0869 111.82 68.4103 111.037 72.5166L110.985 72.7854L110.883 72.6976C108.676 70.7753 107.305 69.0435 106.906 67.7443L106.887 67.678C106.839 67.5057 106.816 67.3713 106.812 67.2813L106.811 67.2596L106.843 67.2639C107.205 67.3212 107.921 67.6895 108.929 68.371C109.224 68.5698 109.624 68.3911 109.673 68.0392L109.713 67.7642C109.898 66.5564 110.142 65.7541 110.419 65.377C110.59 65.1436 110.697 65.1281 110.977 65.3598L111.051 65.4228Z" fill="#DB371B"/>
</svg>
