<svg width="23" height="24" viewBox="0 0 23 24" fill="none" xmlns="http://www.w3.org/2000/svg">
<path d="M11.5 0.959996C11.3727 0.958197 11.2464 0.981699 11.1284 1.02914C11.0104 1.07657 10.9029 1.147 10.8123 1.23632C10.7217 1.32564 10.6498 1.43208 10.6007 1.54945C10.5516 1.66682 10.5263 1.79277 10.5263 1.92C10.5263 2.04722 10.5516 2.17318 10.6007 2.29054C10.6498 2.40791 10.7217 2.51435 10.8123 2.60367C10.9029 2.69299 11.0104 2.76342 11.1284 2.81086C11.2464 2.85829 11.3727 2.88179 11.5 2.88C16.5482 2.88 20.62 6.95178 20.62 12C20.62 17.0482 16.5482 21.12 11.5 21.12C6.45174 21.12 2.37996 17.0482 2.37996 12C2.37996 9.37161 3.48781 7.01189 5.25996 5.34937V7.2C5.25816 7.32721 5.28166 7.45351 5.3291 7.57156C5.37654 7.68961 5.44696 7.79705 5.53629 7.88765C5.62561 7.97824 5.73205 8.05018 5.84941 8.09928C5.96678 8.14838 6.09274 8.17367 6.21996 8.17367C6.34719 8.17367 6.47314 8.14838 6.59051 8.09928C6.70787 8.05018 6.81431 7.97824 6.90363 7.88765C6.99296 7.79705 7.06338 7.68961 7.11082 7.57156C7.15826 7.45351 7.18176 7.32721 7.17996 7.2V1.92H1.89996C1.77275 1.9182 1.64645 1.9417 1.5284 1.98914C1.41035 2.03657 1.30291 2.107 1.21231 2.19632C1.12172 2.28564 1.04978 2.39208 1.00068 2.50945C0.951574 2.62682 0.926288 2.75277 0.926288 2.88C0.926288 3.00722 0.951574 3.13318 1.00068 3.25054C1.04978 3.36791 1.12172 3.47435 1.21231 3.56367C1.30291 3.65299 1.41035 3.72342 1.5284 3.77086C1.64645 3.81829 1.77275 3.84179 1.89996 3.84H4.07215C1.85518 5.86055 0.459961 8.77071 0.459961 12C0.459961 18.0859 5.4141 23.04 11.5 23.04C17.5858 23.04 22.54 18.0859 22.54 12C22.54 5.91414 17.5858 0.959996 11.5 0.959996Z" fill="#F6F6F6"/>
</svg>
